<svg xmlns="http://www.w3.org/2000/svg" xmlns:xlink="http://www.w3.org/1999/xlink" width="664" height="604" viewBox="0 0 664 604">
  <defs>
    <linearGradient id="linear-gradient" x1="0.5" y1="1" x2="0.5" gradientUnits="objectBoundingBox">
      <stop offset="0" stop-color="gray" stop-opacity="0.251"/>
      <stop offset="0.535" stop-color="gray" stop-opacity="0.122"/>
      <stop offset="1" stop-color="gray" stop-opacity="0.102"/>
    </linearGradient>
    <linearGradient id="linear-gradient-2" x1="0.5" y1="1" x2="0.5" y2="0" xlink:href="#linear-gradient"/>
    <linearGradient id="linear-gradient-3" x1="-4.618" y1="1" x2="-4.618" y2="0" xlink:href="#linear-gradient"/>
    <clipPath id="clip-top-nav">
      <rect width="664" height="604"/>
    </clipPath>
  </defs>
  <g id="top-nav" clip-path="url(#clip-top-nav)">
    <g id="undraw_Group_chat_unwm" transform="translate(20 51)">
      <path id="Path_1606" data-name="Path 1606" d="M669.014,725.377s-7.015-4.629-13.969-1.336c0,0,2.142,4.126,10.943,3.733Z" transform="translate(-297.125 -346.005)" fill="#9499f1"/>
      <path id="Path_1607" data-name="Path 1607" d="M677.527,727.7s2.134,8.13-3.215,13.659c0,0-3.221-3.353-.025-11.562Z" transform="translate(-304.777 -348.085)" fill="#9499f1"/>
      <path id="Path_1608" data-name="Path 1608" d="M684.227,710.208s-.518-6.914-16.128-4.62c0,0-.073,4.46,5.408,6.574S681.494,712.494,684.227,710.208Z" transform="translate(-302.728 -338.393)" fill="#9499f1"/>
      <path id="Path_1609" data-name="Path 1609" d="M694.609,713.95s6.6,2.122.715,16.761c0,0-4.353-.973-5.125-6.8S691.747,716.072,694.609,713.95Z" transform="translate(-312.149 -342.182)" fill="#9499f1"/>
      <path id="Path_1610" data-name="Path 1610" d="M702.179,689.031s.893-11.376-15.059-10.208c0,0-1.133,10.3,12.243,12.943Z" transform="translate(-310.882 -327.069)" fill="#9499f1"/>
      <path id="Path_1611" data-name="Path 1611" d="M718.355,666.929s-2.188-12.891-18.133-9.048c0,0-.06,11.146,15.529,12.122Z" transform="translate(-316.515 -317.81)" fill="#9499f1"/>
      <path id="Path_1612" data-name="Path 1612" d="M730.851,643.86s-3.661-12.585-19.461-8.8c0,0,3.759,11.294,18.412,11.118Z" transform="translate(-321.308 -308.019)" fill="#9499f1"/>
      <path id="Path_1613" data-name="Path 1613" d="M744.148,620.888s-3.58-13.034-18.83-9.12c0,0,5.09,12.381,17.827,11.338Z" transform="translate(-327.286 -298.011)" fill="#9499f1"/>
      <path id="Path_1614" data-name="Path 1614" d="M753.808,597s-2.752-15.939-16.977-12.412c0,0,4.132,14.5,15.929,14.731Z" transform="translate(-332.227 -286.442)" fill="#9499f1"/>
      <path id="Path_1615" data-name="Path 1615" d="M761.024,571.437s-3.3-16.066-17.68-11.394c0,0,5.645,15.182,16.677,13.612Z" transform="translate(-335.022 -275.76)" fill="#9499f1"/>
      <path id="Path_1616" data-name="Path 1616" d="M766.807,544.621s-5.245-16.064-16.371-15.629c0,0,5.364,16.968,15.441,18.853Z" transform="translate(-338.066 -262.795)" fill="#9499f1"/>
      <path id="Path_1617" data-name="Path 1617" d="M771.063,519.223s-5.708-19.34-14.763-17.847c0,0,3.952,14.781,14.441,20.859Z" transform="translate(-340.583 -250.911)" fill="#9499f1"/>
      <path id="Path_1618" data-name="Path 1618" d="M773.15,491.823s-5.349-16.115-14.289-16.756c0,0,3.641,15.855,14.091,20.944Z" transform="translate(-341.682 -239.654)" fill="#9499f1"/>
      <path id="Path_1619" data-name="Path 1619" d="M776.331,465.689s-6.672-16.133-12.58-16.5c0,0,2.9,15.884,11.99,19.144Z" transform="translate(-343.781 -228.55)" fill="#9499f1"/>
      <path id="Path_1620" data-name="Path 1620" d="M779.567,439.307s-4.1-17.521-10-18.974c0,0,.807,14.331,9.41,20.285Z" transform="translate(-346.276 -216.163)" fill="#9499f1"/>
      <path id="Path_1621" data-name="Path 1621" d="M784.138,409.389s-4.314-13.962-9.091-16.093c0,0,.944,16.464,7.984,19.508Z" transform="translate(-348.629 -204.559)" fill="#9499f1"/>
      <path id="Path_1622" data-name="Path 1622" d="M791.511,381.9l.871-24.624s-8.916,18.583-1.527,28.968Z" transform="translate(-354.156 -189.098)" fill="#9499f1"/>
      <path id="Path_1623" data-name="Path 1623" d="M803.667,343.268s6.429-17.982,7.975-18.983c0,0-12.613,11.664-11.382,26.672Z" transform="translate(-359.415 -174.94)" fill="#9499f1"/>
      <path id="Path_1624" data-name="Path 1624" d="M712.337,696.6s11.315-1.481,10.975,14.509c0,0-10.224,1.665-13.56-11.556Z" transform="translate(-320.605 -334.718)" fill="#9499f1"/>
      <path id="Path_1625" data-name="Path 1625" d="M730.983,673.516s13.075-.044,12.009,16.324c0,0-10.972,1.96-14.593-13.234Z" transform="translate(-328.608 -324.828)" fill="#9499f1"/>
      <path id="Path_1626" data-name="Path 1626" d="M744.921,652.069s11.867-5.565,19.461,8.8c0,0-10.962,4.638-20.509-6.479Z" transform="translate(-335.249 -315.168)" fill="#9499f1"/>
      <path id="Path_1627" data-name="Path 1627" d="M758.016,627.574s12.15-5.922,19.285,8.112c0,0-12.657,4.357-20.288-5.893Z" transform="translate(-340.889 -304.577)" fill="#9499f1"/>
      <path id="Path_1628" data-name="Path 1628" d="M765.9,603.615s11.7-11.172,21.03.127c0,0-11.948,9.193-21.567,2.361Z" transform="translate(-344.471 -292.712)" fill="#9499f1"/>
      <path id="Path_1629" data-name="Path 1629" d="M772.841,576.271s11.768-11.425,21.027.526c0,0-13.208,9.376-21.446,1.872Z" transform="translate(-347.503 -280.977)" fill="#9499f1"/>
      <path id="Path_1630" data-name="Path 1630" d="M777.013,546.9s9.065-14.261,19.736-11.08c0,0-9.4,15.108-19.635,14.434Z" transform="translate(-349.473 -265.53)" fill="#9499f1"/>
      <path id="Path_1631" data-name="Path 1631" d="M781.515,521.1s9.142-17.973,17.772-14.853c0,0-6.583,13.811-18.005,17.873Z" transform="translate(-351.305 -252.882)" fill="#9499f1"/>
      <path id="Path_1632" data-name="Path 1632" d="M782.111,493.368s9.391-14.146,18.186-12.419c0,0-7.674,14.344-19.094,16.512Z" transform="translate(-351.272 -242.116)" fill="#9499f1"/>
      <path id="Path_1633" data-name="Path 1633" d="M784.049,465.5s7.276-15.869,13.194-16.01c0,0-3.5,15.763-12.7,18.678Z" transform="translate(-352.493 -228.677)" fill="#9499f1"/>
      <path id="Path_1634" data-name="Path 1634" d="M786.579,440.859s8.088-16.074,14.165-16.106c0,0-4.139,13.744-13.9,17.52Z" transform="translate(-353.579 -218.06)" fill="#9499f1"/>
      <path id="Path_1635" data-name="Path 1635" d="M788.709,412.081s6.051-13.3,11.06-14.809c0,0-3.026,16.211-10.395,18.338Z" transform="translate(-354.493 -206.265)" fill="#9499f1"/>
      <path id="Path_1636" data-name="Path 1636" d="M793.985,384.112l13.521-20.6s-3.464,20.318-15.5,24.522Z" transform="translate(-355.91 -191.776)" fill="#9499f1"/>
      <path id="Path_1637" data-name="Path 1637" d="M806.8,350.97s15.715-10.849,16.284-12.6c0,0-8.017,15.194-22.835,17.875Z" transform="translate(-359.448 -180.984)" fill="#9499f1"/>
      <path id="Path_1638" data-name="Path 1638" d="M813.051,338.87s18.043-17.346,22.65-17.328c0,0-14.88.681-23.082,16.4Z" transform="translate(-364.755 -173.762)" fill="#9499f1"/>
      <path id="Path_1639" data-name="Path 1639" d="M789.015,394.11l.659.084c3.39-26.54,8.333-42.225,13.919-44.165l-.218-.627C797.454,351.459,792.488,366.919,789.015,394.11Z" transform="translate(-354.624 -185.72)" fill="#9499f1"/>
      <path id="Path_1640" data-name="Path 1640" d="M780.282,489.7l.992.084c.209-2.478.37-5.015.478-7.54.946-21.968,2.415-42.137,4.346-57.259l-.576-.711c-1.935,15.15-3.819,35.932-4.766,57.927C780.65,484.716,780.49,487.239,780.282,489.7Z" transform="translate(-350.876 -217.856)" fill="#9499f1"/>
      <path id="Path_1641" data-name="Path 1641" d="M646.655,657.63c.174-.077,17.657-7.883,35.8-26.506a144.026,144.026,0,0,0,26.172-37.077c8.389-17.081,13.5-38.078,15.218-58.472l-1.035.486c-3.852,45.775-24.693,77.072-41.265,94.093-17.969,18.457-35.255,26.184-35.427,26.259Z" transform="translate(-293.295 -265.624)" fill="#9499f1"/>
      <path id="Path_1642" data-name="Path 1642" d="M416.9,355.011V570.65c0,6.414-6.186,11.628-13.823,11.628H110.5c-7.638,0-13.823-5.214-13.823-11.628V355.011c0-6.425,6.185-12.973,13.823-12.973H403.073C410.711,342.038,416.9,348.586,416.9,355.011Z" transform="translate(-57.475 -182.559)" fill="#fff"/>
      <path id="Path_1643" data-name="Path 1643" d="M416.9,355.861v33.9H96.675v-33.9A13.819,13.819,0,0,1,110.5,342.038H403.073A13.819,13.819,0,0,1,416.9,355.861Z" transform="translate(-57.475 -182.559)" fill="#6c63ff" opacity="0.2"/>
      <circle id="Ellipse_91" data-name="Ellipse 91" cx="9.244" cy="9.244" r="9.244" transform="translate(47.518 174.096)" fill="#fff"/>
      <circle id="Ellipse_92" data-name="Ellipse 92" cx="9.244" cy="9.244" r="9.244" transform="translate(74.411 174.096)" fill="#fff"/>
      <circle id="Ellipse_93" data-name="Ellipse 93" cx="9.244" cy="9.244" r="9.244" transform="translate(101.305 174.096)" fill="#fff"/>
      <path id="Path_1644" data-name="Path 1644" d="M157.614,684.718s-8.938,2.163-12.476,6.206a12.032,12.032,0,0,1-4.758,3.023v-6.115c2.043-3.433,4.106-7.252,4.106-7.252.093-.188.838-2.821.838-2.821,1.676-1.316-.093-5.924-.093-5.924s1.024-2.915.465-3.479-.093-2.069.372-2.727a3.406,3.406,0,0,0,.372-2.069c0-.564-.745-1.41-1.955-1.881s.093-1.222.838-1.41.931-1.975.093-2.915.093-1.5.559-2.539-1.49-.846-1.49-.846v-9.495h0s-.559-3.1-1.117-8.558-2.7-6.017-2.7-6.017a24.367,24.367,0,0,1-3.352-1.317,22.938,22.938,0,0,0-3.539-1.315,18.14,18.14,0,0,1-4.561-.632,13.992,13.992,0,0,0-3.114-.674c-.114-.054-.223-.11-.335-.166a12.189,12.189,0,0,1-5.65-5.986c-.057-.129-.11-.257-.162-.384a13.294,13.294,0,0,0,1.489-1.974l.01-.016c0,.1,0,.192,0,.288,0,.04,0,.081,0,.121,0,.232,0,.464-.01.695v.018c1.486-2.624,5.793-3.223,6.2-6.217a3.14,3.14,0,0,0,.027-.411v-.019c0-.1,0-.2-.012-.3-.056-.836-.342-1.669-.4-2.514a4.9,4.9,0,0,1,.012-.725v.014c.193-2.326,1.947-4.349,2.75-6.608a8.1,8.1,0,0,0,.419-1.88l0-.017q.03-.291.039-.583c0-.048,0-.1,0-.145q0-.2,0-.406a8.8,8.8,0,0,0-2.906-6.354c-1.484-1.29-3.446-2.1-4.473-3.785-.479-.786-.715-1.709-1.238-2.466a6.2,6.2,0,0,0-4.5-2.213,26.226,26.226,0,0,1-5.107-.675c-1.16-.381-2.212-1.055-3.384-1.394a6.478,6.478,0,0,0-6.957,2.509,12.334,12.334,0,0,1-1.855,2.684c-1.706,1.442-4.6.816-6.1,2.479a4.415,4.415,0,0,0-.815,3.431l0,.045q.012.148.027.3c0,.046.009.092.014.138s.011.1.017.147c.053.456.119.91.176,1.348.009.067.015.134.023.2.016.136.032.272.045.408.01.1.018.2.026.3q.015.185.027.37c.006.1.013.193.017.29A20.069,20.069,0,0,1,91.4,606.528c-1.408,2.766-3.5,5.311-3.868,8.4a8.9,8.9,0,0,0-.04,1.523c0,.06,0,.12.008.179.006.092.016.183.025.274s.019.21.032.314c.007.06.017.12.025.179.019.139.039.278.063.417.005.03.011.059.016.089.37,2.1,1.207,4.182,1.654,6.293a17.437,17.437,0,0,1,.333,2.378v.016q.027.381.036.763c.009.344,0,.689-.007,1.033a16.218,16.218,0,0,1-2.17.666c-1.3.189-5.123,3.574-4.843,4.42s-1.709,6.778-1.765,6.953l0,0h0l-3.141,21.626s-1.659,1.6-1.14,2.633a4.559,4.559,0,0,1-.1,2.821s-2.8,1.222-2.18,1.975.338,2.163-.09,3.1-1.127,2.633,0,2.915.194,3.949.194,3.949,3.93-.451,3.641,1.881c-.092.745,2.748,2.786,3.934,3.6v11.233a34.386,34.386,0,0,1-4.655-1.579c-2.421-1.128-16.014-3.291-18.993,3.2s4.1,15.139,5.866,16.079a12.11,12.11,0,0,1,2.048,1.975c.372.658,2.514.846,2.514.846a15.8,15.8,0,0,1,2.793,1.6c.412.416,3.815,1.5,7.851,2.338h0s-3.259,7.5,2.057,6.883,7.906-3.235,11.654-3.235c1.5,0,4.28-.209,7.081-.46a18.674,18.674,0,0,1,2.082.491,26.63,26.63,0,0,0,4.841,1.034s4.19,2.257,6.424,1.693a1.467,1.467,0,0,0,.508-.271l.051-.011a2.985,2.985,0,0,0,1.346-1.154,40.13,40.13,0,0,1,7.179,1.156c2.317.895,18.879-.344,18.879-.344s10.7.21,13.767,1.138,1.976-9.466-3.68-10.636a23.072,23.072,0,0,0-4.6-.407,10.089,10.089,0,0,0,1.069-1.3c2.039-.185,3.378-.3,3.378-.3s5.4-2.633,8.472-4.231a19.322,19.322,0,0,0,5.214-4.137s2.7-1.693,3.817-2.351,1.676-2.821,1.676-2.821C179.12,682.179,157.614,684.718,157.614,684.718Zm-24.245-24.062c0-.317,0-.633,0-.948.3.215.254.551,0,.948Zm.088,6.65c.225.3.444.567.6.769.6.772-.488,1.147-.409,2.441.018.291.043.693.07,1.14h0c-.115-1.853-.208-3.391-.263-4.35Z" transform="translate(-40.723 -285.393)" fill="url(#linear-gradient)"/>
      <path id="Path_1645" data-name="Path 1645" d="M84.994,781.013a55.049,55.049,0,0,1-7.634-2.328c-2.421-1.117-16.014-3.259-18.993,3.165s4.1,14.99,5.865,15.921,18.993-11.824,18.993-11.824l13.593,5.726,2.607-8.891Z" transform="translate(-40.723 -369.426)" fill="#65617d"/>
      <rect id="Rectangle_420" data-name="Rectangle 420" width="59.144" height="20.576" rx="10.288" transform="translate(50.019 413.356)" fill="#65617d"/>
      <path id="Path_1646" data-name="Path 1646" d="M174.773,797.1a10.29,10.29,0,0,1-10.287,10.29H125.917a10.288,10.288,0,1,1,0-20.577h38.57a10.288,10.288,0,0,1,10.287,10.286Z" transform="translate(-65.61 -373.452)" opacity="0.1"/>
      <path id="Path_1647" data-name="Path 1647" d="M133.328,805.885a49.177,49.177,0,0,1-10.768,1.455c-4.839-.068-27.479,9.337-27.479,9.337s-3.259,7.429,2.057,6.815,7.906-3.2,11.654-3.2,15.539-1.295,15.539-1.295l11.347-8.383Z" transform="translate(-56.367 -381.64)" fill="#fbbebe"/>
      <path id="Path_1648" data-name="Path 1648" d="M148.333,663.091l-10.639,2.1-.69.137s-8.41-2.234-8.689-2.422S120.4,652.43,120.4,652.43a15.4,15.4,0,0,0,6.893-1.707c.109-.061.215-.129.321-.2a6.711,6.711,0,0,0,2.877-3.514c.053-.154.1-.313.145-.478a9.439,9.439,0,0,0-.089-4.581c-1.028-4.34,1.355-5.536,4.53-5.433,4.586.151,10.832,3.014,10.832,3.014a12.715,12.715,0,0,0,.98,4.245c.05.126.106.251.162.38a12.116,12.116,0,0,0,5.65,5.927c.112.056.221.112.335.165.338.162.7.316,1.067.455C162.206,653.781,148.333,663.091,148.333,663.091Z" transform="translate(-67.659 -308.948)" fill="#fbbebe"/>
      <path id="Path_1649" data-name="Path 1649" d="M154.5,644.162a13.41,13.41,0,0,1-16.56,2.852,9.013,9.013,0,0,0,.056-5.058c-2.514-10.614,15.362-2.419,15.362-2.419a12.881,12.881,0,0,0,1.142,4.625Z" transform="translate(-75.106 -308.948)" opacity="0.1"/>
      <path id="Path_1650" data-name="Path 1650" d="M152.813,623.31a13.336,13.336,0,0,1-2.031,7.094,13.185,13.185,0,0,1-1.489,1.955,13.343,13.343,0,0,1-9.078,4.332c-.268.017-.539.025-.81.025a13.407,13.407,0,1,1,13.407-13.407Z" transform="translate(-70.061 -297.526)" fill="#fbbebe"/>
      <path id="Path_1651" data-name="Path 1651" d="M148.333,673.3l-10.639,2.1-.69.137s-8.41-2.234-8.689-2.422-7.913-10.474-7.913-10.474a15.4,15.4,0,0,0,6.893-1.707c.109-.062.215-.129.321-.2a12.484,12.484,0,0,0,9.075,3.969,12.918,12.918,0,0,0,1.894-.151c1.5-.229,3.005-.377,4.511-.533,2.882-.3,7.293-1.176,9.608-3.723.112.056.221.112.335.165.338.162.7.316,1.067.455C162.206,663.987,148.333,673.3,148.333,673.3Z" transform="translate(-67.659 -319.153)" opacity="0.1"/>
      <path id="Path_1652" data-name="Path 1652" d="M150.892,700.6c.092,2.05,1.584,25.138,1.584,25.138h-46.46l.316-14.535.254-11.628.084-3.815.371-13.22L105.7,681.36l-7.315-6.452,0,0c.056-.173,2.042-6.058,1.765-6.885s3.539-4.19,4.843-4.377a16.437,16.437,0,0,0,2.184-.665c2.2-.771,5.125-1.9,5.449-1.729.455.246,5.025-.179,5.217-.2h.006a12.458,12.458,0,0,0,9.39,4.332,12.9,12.9,0,0,0,1.894-.151c1.5-.229,3.005-.377,4.511-.533,3.028-.316,7.737-1.265,9.943-4.117a14.116,14.116,0,0,1,3.114.668,18.308,18.308,0,0,0,4.561.626,23.086,23.086,0,0,1,3.539,1.3,24.523,24.523,0,0,0,3.352,1.3s2.142.559,2.7,5.958,1.117,8.474,1.117,8.474l-11.08,9.589S150.8,698.557,150.892,700.6Z" transform="translate(-58.208 -319.277)" fill="#9499f1"/>
      <path id="Path_1653" data-name="Path 1653" d="M69.122,690.323l1.628,2.607,6.1,2.15,4.19-7.643-3.863-2.607-6.193-2.42-3.538,2.048Z" transform="translate(-28.948 -292.887)" fill="#fbbebe"/>
      <path id="Path_1654" data-name="Path 1654" d="M188.934,773.223s8.659-.652,12.2-4.655,12.476-6.145,12.476-6.145,21.507-2.514,13.034,16.479c0,0-.559,2.141-1.676,2.793s-3.817,2.328-3.817,2.328L188.1,781.137Z" transform="translate(-96.715 -362.939)" fill="#65617d"/>
      <path id="Path_1655" data-name="Path 1655" d="M193.214,799.055a10.255,10.255,0,0,1-1.712,5.687c-5.558.494-17.87,1.651-20.445,2.369-3.165.877-9.569-.651-10.27-.824l-.064-.014s-1.235-3.745-1.824-6.142c-.265-1.089-.4-1.9-.226-1.958.559-.187,5.681-1.584,5.586-.793s15.362-6,15.362-6l.475,5.96C181.67,799.141,193.214,796.468,193.214,799.055Z" transform="translate(-84.05 -375.412)" opacity="0.1"/>
      <path id="Path_1656" data-name="Path 1656" d="M209.555,794.286l-.652,2.421a19.281,19.281,0,0,1-5.214,4.1c-3.072,1.583-8.472,4.19-8.472,4.19s-19.831,1.676-23.183,2.607-10.334-.838-10.334-.838-2.607-7.914-2.048-8.1,5.679-1.583,5.586-.791,15.362-6.005,15.362-6.005Z" transform="translate(-84.471 -375.623)" fill="#65617d"/>
      <path id="Path_1657" data-name="Path 1657" d="M150.412,825.923s9.746.682,12.063,1.568,18.879-.341,18.879-.341,10.7.208,13.767,1.126,1.976-9.373-3.68-10.532-13.631.545-13.631.545-9-1.159-10.087-1.295-8.279.066-8.279.066Z" transform="translate(-80.539 -386.388)" fill="#fbbebe"/>
      <path id="Path_1658" data-name="Path 1658" d="M83.31,787.658s12.881,1.159,16.425,3.271Z" transform="translate(-51.739 -373.817)" opacity="0.1"/>
      <path id="Path_1659" data-name="Path 1659" d="M213.525,772.853s-10.087,2.454-14.04,6.066Z" transform="translate(-101.601 -367.463)" opacity="0.1"/>
      <path id="Path_1660" data-name="Path 1660" d="M84.623,782.524c.2.068,5.929.818,5.793,1.363S84.623,782.524,84.623,782.524Z" transform="translate(-52.302 -371.614)" opacity="0.1"/>
      <path id="Path_1661" data-name="Path 1661" d="M68.86,803.349l.745,2.793a12.058,12.058,0,0,1,2.048,1.955c.372.652,2.514.838,2.514.838a15.836,15.836,0,0,1,2.793,1.583c.559.559,6.61,2.328,12.29,3.072s16.2,2.141,18.434,2.886a26.868,26.868,0,0,0,4.841,1.024s4.19,2.234,6.424,1.676S125,808.47,125,808.47s-14.71-3.445-15.176-4.562-14.617-6.328-14.617-6.328l-8.379.2Z" transform="translate(-45.537 -378.076)" opacity="0.1"/>
      <path id="Path_1662" data-name="Path 1662" d="M67.881,800.266l.745,2.793a12.065,12.065,0,0,1,2.048,1.955c.372.652,2.514.838,2.514.838a15.84,15.84,0,0,1,2.793,1.583c.559.559,6.61,2.328,12.29,3.072s16.2,2.141,18.434,2.886a26.857,26.857,0,0,0,4.841,1.024s4.19,2.234,6.424,1.676,6.052-10.707,6.052-10.707-14.71-3.445-15.176-4.562-21.227-9.59-21.227-9.59L81.1,789.745Z" transform="translate(-45.117 -374.713)" fill="#65617d"/>
      <path id="Path_1663" data-name="Path 1663" d="M94.55,684.05l-1.628.931-3.141,21.414s-1.659,1.583-1.14,2.607a4.472,4.472,0,0,1-.1,2.793s-2.8,1.21-2.18,1.955.338,2.141-.09,3.072-1.127,2.607,0,2.886.194,3.91.194,3.91,3.93-.447,3.641,1.862c-.116.931,4.445,3.91,4.445,3.91s-5.183-9.4,6.427-8.1l1-5.3s1-2.985,0-3.916.224-5.353.224-5.353l.219-19.226Z" transform="translate(-52.748 -329.349)" fill="#9499f1"/>
      <path id="Path_1664" data-name="Path 1664" d="M96.8,732.495c.2.341,6.475,1.036,6.884,2.154S96.8,732.495,96.8,732.495Z" transform="translate(-57.529 -350.141)" opacity="0.1"/>
      <path id="Path_1665" data-name="Path 1665" d="M93.339,740.126s.85-2.658,2.879-2.181S93.339,740.126,93.339,740.126Z" transform="translate(-56.043 -352.456)" opacity="0.1"/>
      <path id="Path_1666" data-name="Path 1666" d="M91.429,746.143s1.5-3.544,3.544-3.271S91.429,746.143,91.429,746.143Z" transform="translate(-55.223 -354.589)" opacity="0.1"/>
      <path id="Path_1667" data-name="Path 1667" d="M197.276,745.188l-.652,3.91s-6.7,12.29-7.914,12.476-7.821-8.193-7.821-8.193l-1.769-8.193,6.964-1.32,3.091-3.056S197,741.557,197.276,745.188Z" transform="translate(-92.86 -353.711)" fill="#fbbebe"/>
      <path id="Path_1668" data-name="Path 1668" d="M197.965,688.375l2.514,1.769v9.4s1.955-.186,1.49.838-1.4,1.583-.559,2.514.652,2.7-.093,2.886-2.048.931-.838,1.4,1.955,1.3,1.955,1.862a3.344,3.344,0,0,1-.372,2.048c-.466.652-.931,2.141-.372,2.7s-.466,3.445-.466,3.445,1.769,4.562.093,5.865c0,0-.745,2.607-.838,2.793,0,0,1.173-9.064-10.539-5.23,0,0-.218-3.454-.3-4.735s1.01-1.653.409-2.417-2.108-2.514-1.4-2.979.466-1.3.186-1.955-1.265-.652-.373-1.443,1.419-1.534.9-1.908-1.432-1.586-.709-2.142.745-8.659.745-8.659S192.379,682.51,197.965,688.375Z" transform="translate(-96.715 -330.509)" fill="#9499f1"/>
      <path id="Path_1669" data-name="Path 1669" d="M203.306,717.337s3.58-.971,3.7,0S203.306,717.337,203.306,717.337Z" transform="translate(-103.241 -343.45)" opacity="0.1"/>
      <path id="Path_1670" data-name="Path 1670" d="M196.262,721.868s4.907-1.227,5.52-.273S196.262,721.868,196.262,721.868Z" transform="translate(-100.217 -345.307)" opacity="0.1"/>
      <path id="Path_1671" data-name="Path 1671" d="M194.351,726.628s7.361-1.022,7.838.477S194.351,726.628,194.351,726.628Z" transform="translate(-99.397 -347.477)" opacity="0.1"/>
      <path id="Path_1672" data-name="Path 1672" d="M196.262,732.495c.273.068,7.088.545,7.224,1.84S196.262,732.495,196.262,732.495Z" transform="translate(-100.217 -350.141)" opacity="0.1"/>
      <rect id="Rectangle_421" data-name="Rectangle 421" width="58.366" height="33.151" rx="10.467" transform="translate(41.292 386.551)" fill="#3f3d56"/>
      <circle id="Ellipse_94" data-name="Ellipse 94" cx="2.153" cy="2.153" r="2.153" transform="translate(68.322 400.974)" fill="#e7effd"/>
      <path id="Path_1673" data-name="Path 1673" d="M117.466,704.252s5.594,4.276,9.919,1.017C127.385,705.269,120.073,705.935,117.466,704.252Z" transform="translate(-66.398 -338.02)" opacity="0.1"/>
      <path id="Path_1674" data-name="Path 1674" d="M167.093,706.265s5.594,4.276,9.919,1.017C177.012,707.283,169.7,707.948,167.093,706.265Z" transform="translate(-87.698 -338.884)" opacity="0.1"/>
      <path id="Path_1675" data-name="Path 1675" d="M143.853,623.309a13.336,13.336,0,0,1-2.031,7.094,20.43,20.43,0,0,0-3.022-10.586c-1.86-2.857-7.513-7.865-11.4-6.472a2.76,2.76,0,0,0-1.7,1.827c-.385,1.464.743,2.073,1.466,3.237a9.912,9.912,0,0,1,1.355,6.689,9.418,9.418,0,0,1-.2.927c-.612,2.3-2.014,4.924-.567,6.81,1.008,1.313,3.176,1.765,3.469,3.394a1.986,1.986,0,0,1,.028.461c-.067,1.095-1,2.061-1.41,3.14a5.153,5.153,0,0,0,.288,3.8c.648,1.662,1.679,3.343,1.927,5.1a10.075,10.075,0,0,1-.925,5.036,22.569,22.569,0,0,0-1.536,4.74c-.45,3.095.684,6.673-1.262,9.119a1.361,1.361,0,0,1-.852.575c-1.249.131-1.036-2.112-2.039-2.866a8.774,8.774,0,0,1-.265,3.882,2.989,2.989,0,0,1-3,2.05l-.444-2.927a8.443,8.443,0,0,1-3.1,1.941,22.6,22.6,0,0,1,3.234-8.762c-3.279,1.578-5.19,5-6.9,8.209-1.064,2.008-2.165,4.2-1.793,6.446.151.913.545,1.782.631,2.7a2.248,2.248,0,0,1-1.106,2.346,2,2,0,0,1-2.159-.67c-.031-.036-.061-.073-.092-.112a2.183,2.183,0,0,1-.148-.209,3.251,3.251,0,0,1-.249-.441,8.557,8.557,0,0,1-.525-1.712l-.059-.251c-.866-3.807-1.648-7.731-1.014-11.58a21.755,21.755,0,0,0,.612-4.262,7.883,7.883,0,0,0-.486-2.377c-.76-2.128-2.223-4.086-3.058-6.231a.35.35,0,0,1-.02-.047c-.439-1.137-.654-2.556.156-3.466a7.057,7.057,0,0,1,1.556-1.053c1.62-1.056,2.346-3.058,2.642-4.969a16.743,16.743,0,0,0,.2-2.614c2.2-.771,5.125-1.9,5.449-1.729.455.246,5.025-.179,5.217-.2a6.827,6.827,0,0,0,3.2-3.709c.053-.154.1-.313.145-.478a13.408,13.408,0,1,1,19.772-11.8Z" transform="translate(-61.1 -297.524)" opacity="0.1"/>
      <path id="Path_1676" data-name="Path 1676" d="M128.325,614.217c-.613,2.3-2.013,4.925-.566,6.81,1.009,1.314,3.175,1.764,3.467,3.395.23,1.29-.918,2.374-1.381,3.6-1.106,2.925,1.776,5.8,2.214,8.9.475,3.359-1.972,6.42-2.46,9.777-.45,3.094.685,6.672-1.263,9.117a1.352,1.352,0,0,1-.852.576c-1.248.133-1.036-2.11-2.04-2.864a8.729,8.729,0,0,1-.265,3.882,2.987,2.987,0,0,1-3,2.05l-.444-2.928a8.474,8.474,0,0,1-3.1,1.942,22.61,22.61,0,0,1,3.235-8.762c-3.278,1.579-5.189,5-6.895,8.209-1.066,2.007-2.165,4.2-1.794,6.445.151.914.544,1.782.631,2.7a2.246,2.246,0,0,1-1.107,2.346,2.031,2.031,0,0,1-2.251-.78,5.887,5.887,0,0,1-.921-2.364c-.889-3.886-1.722-7.9-1.072-11.832a21.68,21.68,0,0,0,.61-4.262c-.113-3.144-2.432-5.72-3.565-8.655-.439-1.137-.652-2.555.157-3.467A7.106,7.106,0,0,1,107.225,637c1.619-1.056,2.346-3.058,2.643-4.968a17.218,17.218,0,0,0-.175-6.22c-.654-3.062-2.153-6.051-1.782-9.16.365-3.058,2.46-5.578,3.868-8.317a19.688,19.688,0,0,0,1.995-11.5c-.243-1.836-.666-3.962.579-5.333,1.495-1.647,4.389-1.028,6.1-2.455a12.21,12.21,0,0,0,1.855-2.657,6.511,6.511,0,0,1,6.957-2.484c1.172.336,2.225,1,3.385,1.38a26.475,26.475,0,0,0,5.107.668,6.218,6.218,0,0,1,4.5,2.192c.522.75.758,1.664,1.238,2.442,1.027,1.667,2.989,2.47,4.473,3.747a8.684,8.684,0,0,1,2.444,9.275c-.886,2.468-2.937,4.649-2.762,7.266a15.967,15.967,0,0,1,.381,3.2c-.41,2.965-4.717,3.558-6.2,6.156a21.3,21.3,0,0,0-3.024-12.221c-1.861-2.858-7.514-7.866-11.4-6.472a2.761,2.761,0,0,0-1.7,1.827c-.385,1.463.742,2.072,1.466,3.238A9.844,9.844,0,0,1,128.325,614.217Z" transform="translate(-61.1 -286.274)" fill="#3f3d56"/>
      <g id="Group_1801" data-name="Group 1801" transform="translate(44.031 307.496)" opacity="0.2">
        <path id="Path_1677" data-name="Path 1677" d="M112.119,654.2a17.208,17.208,0,0,0-.371-3.986c-.556-2.6-1.719-5.154-1.828-7.77-.149,2.912,1.213,5.728,1.828,8.608A17.183,17.183,0,0,1,112.119,654.2Z" transform="translate(-107.186 -618.986)"/>
        <path id="Path_1678" data-name="Path 1678" d="M127.171,699.144c.227-.416.462-.827.714-1.228-3.278,1.579-5.189,5-6.895,8.209-.987,1.859-2,3.879-1.85,5.948a13.4,13.4,0,0,1,1.85-5.11C122.568,703.992,124.323,700.849,127.171,699.144Z" transform="translate(-111.142 -642.796)"/>
        <path id="Path_1679" data-name="Path 1679" d="M116.144,722.082a1.975,1.975,0,0,1-1.09,1.633,2.031,2.031,0,0,1-2.251-.78,5.887,5.887,0,0,1-.921-2.364,42.105,42.105,0,0,1-1.3-8.454,38.672,38.672,0,0,0,1.3,9.292,5.887,5.887,0,0,0,.921,2.364,2.032,2.032,0,0,0,2.251.78,2.247,2.247,0,0,0,1.107-2.346C116.157,722.166,116.15,722.124,116.144,722.082Z" transform="translate(-107.475 -648.891)"/>
        <path id="Path_1680" data-name="Path 1680" d="M145.175,632.268a9.314,9.314,0,0,1-.3,1.979c-.454,1.7-1.34,3.587-1.179,5.216a27.941,27.941,0,0,1,1.179-4.378A9.44,9.44,0,0,0,145.175,632.268Z" transform="translate(-121.679 -614.62)"/>
        <path id="Path_1681" data-name="Path 1681" d="M120.247,606.569a19.329,19.329,0,0,0-.16-2.971c-.1-.726-.219-1.5-.257-2.247a16.805,16.805,0,0,0,.257,3.085A19.241,19.241,0,0,1,120.247,606.569Z" transform="translate(-111.444 -601.35)"/>
        <path id="Path_1682" data-name="Path 1682" d="M149.629,655.033c0-.023-.012-.043-.017-.066a21.746,21.746,0,0,1-1.364,2.828,4,4,0,0,0-.229,1.822,3.841,3.841,0,0,1,.229-.984C148.711,657.407,149.86,656.323,149.629,655.033Z" transform="translate(-123.533 -624.362)"/>
        <path id="Path_1683" data-name="Path 1683" d="M109.084,691.148c-.113-3.144-2.432-5.72-3.565-8.655a5.812,5.812,0,0,1-.364-1.431,4.825,4.825,0,0,0,.364,2.269c1.114,2.886,3.37,5.427,3.552,8.5C109.085,691.6,109.092,691.376,109.084,691.148Z" transform="translate(-105.139 -635.562)"/>
        <path id="Path_1684" data-name="Path 1684" d="M154.218,619.812c-1.861-2.858-7.514-7.866-11.4-6.472a2.761,2.761,0,0,0-1.7,1.827,1.979,1.979,0,0,0-.029.979c.01-.047.016-.092.029-.141a2.761,2.761,0,0,1,1.7-1.827c3.887-1.394,9.54,3.614,11.4,6.472a20.68,20.68,0,0,1,3.03,11.013A21.111,21.111,0,0,0,154.218,619.812Z" transform="translate(-120.548 -606.393)"/>
        <path id="Path_1685" data-name="Path 1685" d="M175.628,635.455c-.409,2.959-4.7,3.556-6.193,6.14q0,.428-.01.854c1.486-2.6,5.793-3.191,6.2-6.156a3.639,3.639,0,0,0,0-.878C175.629,635.428,175.629,635.441,175.628,635.455Z" transform="translate(-132.73 -615.971)"/>
        <path id="Path_1686" data-name="Path 1686" d="M182.379,615.389c-.886,2.468-2.937,4.649-2.762,7.266,0,.038.009.077.012.115.192-2.3,1.947-4.306,2.75-6.543a8.21,8.21,0,0,0,.456-3.189,8.065,8.065,0,0,1-.456,2.351Z" transform="translate(-137.1 -606.367)"/>
        <path id="Path_1687" data-name="Path 1687" d="M143.619,705.487a1.352,1.352,0,0,1-.852.576c-1.248.133-1.036-2.11-2.04-2.864.025.3.048.6.065.9.926.8.756,2.935,1.975,2.805a1.352,1.352,0,0,0,.852-.576c1.111-1.4,1.219-3.159,1.19-4.991A6.579,6.579,0,0,1,143.619,705.487Z" transform="translate(-120.414 -644.263)"/>
        <path id="Path_1688" data-name="Path 1688" d="M135.346,710.041a2.987,2.987,0,0,1-3,2.05l-.444-2.928a8.473,8.473,0,0,1-2.945,1.882c-.056.3-.111.6-.155.9a8.473,8.473,0,0,0,3.1-1.942l.444,2.928a2.987,2.987,0,0,0,3-2.05,6.6,6.6,0,0,0,.344-2.649,5.635,5.635,0,0,1-.344,1.812Z" transform="translate(-115.296 -647.222)"/>
        <path id="Path_1689" data-name="Path 1689" d="M147.915,686.269a15,15,0,0,0-.113,2.373,12.252,12.252,0,0,1,.113-1.535c.465-3.2,2.708-6.131,2.506-9.307C150.241,680.658,148.339,683.353,147.915,686.269Z" transform="translate(-123.447 -634.162)"/>
      </g>
      <path id="Path_1690" data-name="Path 1690" d="M655.943,263.987v56.044c0,2.958-2.853,5.363-6.376,5.363H514.627c-3.523,0-6.376-2.405-6.376-5.363V263.987A6.423,6.423,0,0,1,514.627,258H649.568A6.423,6.423,0,0,1,655.943,263.987Z" transform="translate(-234.122 -146.492)" fill="#fff"/>
      <path id="Path_1691" data-name="Path 1691" d="M655.943,264.379v15.635H508.251V264.379A6.374,6.374,0,0,1,514.627,258H649.568A6.374,6.374,0,0,1,655.943,264.379Z" transform="translate(-234.122 -146.492)" fill="#6c63ff" opacity="0.2"/>
      <circle id="Ellipse_95" data-name="Ellipse 95" cx="4.263" cy="4.263" r="4.263" transform="translate(277.966 118.254)" fill="#fff"/>
      <circle id="Ellipse_96" data-name="Ellipse 96" cx="4.263" cy="4.263" r="4.263" transform="translate(290.37 118.254)" fill="#fff"/>
      <circle id="Ellipse_97" data-name="Ellipse 97" cx="4.263" cy="4.263" r="4.263" transform="translate(302.773 118.254)" fill="#fff"/>
      <circle id="Ellipse_98" data-name="Ellipse 98" cx="16.667" cy="16.667" r="16.667" transform="translate(376.067 139.185)" fill="#9499f1"/>
      <rect id="Rectangle_422" data-name="Rectangle 422" width="70.288" height="2.481" transform="translate(357.177 147.117) rotate(180)" fill="#6c63ff"/>
      <rect id="Rectangle_423" data-name="Rectangle 423" width="70.288" height="2.481" transform="translate(357.177 153.164) rotate(180)" fill="#6c63ff" opacity="0.2"/>
      <rect id="Rectangle_424" data-name="Rectangle 424" width="70.288" height="2.481" transform="translate(357.177 159.211) rotate(180)" fill="#6c63ff" opacity="0.2"/>
      <rect id="Rectangle_425" data-name="Rectangle 425" width="70.288" height="2.481" transform="translate(357.177 165.258) rotate(180)" fill="#6c63ff" opacity="0.2"/>
      <path id="Path_1692" data-name="Path 1692" d="M666.407,514.151s-4.952-1.137-8.194,2.2c0,0,2.086,1.883,6.987-.2Z" transform="translate(-298.485 -256.349)" fill="#9499f1"/>
      <path id="Path_1693" data-name="Path 1693" d="M672.467,514.218s2.929,4.152,1.069,8.416c0,0-2.533-1.217-2.461-6.542Z" transform="translate(-304.005 -256.458)" fill="#9499f1"/>
      <path id="Path_1694" data-name="Path 1694" d="M671.7,502.121s-1.756-3.806-10.111.8c0,0,.9,2.541,4.453,2.579S670.634,503.993,671.7,502.121Z" transform="translate(-299.933 -250.631)" fill="#9499f1"/>
      <path id="Path_1695" data-name="Path 1695" d="M679.251,502.83s4.187-.195,3.951,9.341c0,0-2.671.37-4.34-2.765S678.08,504.637,679.251,502.83Z" transform="translate(-306.952 -251.57)" fill="#9499f1"/>
      <path id="Path_1696" data-name="Path 1696" d="M677.334,486.893s-1.9-6.632-10.688-2.6c0,0,1.537,6.071,9.672,4.74Z" transform="translate(-302.104 -243.057)" fill="#9499f1"/>
      <path id="Path_1697" data-name="Path 1697" d="M681.908,470.574s-3.966-6.837-12.184-1.287c0,0,2.324,6.325,11.359,3.579Z" transform="translate(-303.425 -236.241)" fill="#9499f1"/>
      <path id="Path_1698" data-name="Path 1698" d="M684.1,454.817s-4.736-6.353-12.882-.865c0,0,4.519,5.6,12.779,2.4Z" transform="translate(-304.068 -229.634)" fill="#9499f1"/>
      <path id="Path_1699" data-name="Path 1699" d="M686.777,439.07s-4.785-6.624-12.593-1.181c0,0,5.5,5.935,12.495,2.649Z" transform="translate(-305.339 -222.776)" fill="#9499f1"/>
      <path id="Path_1700" data-name="Path 1700" d="M687.157,423.824s-4.931-8.444-12.24-3.437c0,0,5.408,7.336,12.137,4.972Z" transform="translate(-305.654 -215.505)" fill="#9499f1"/>
      <path id="Path_1701" data-name="Path 1701" d="M685.89,407.672s-5.269-8.4-12.423-2.712c0,0,6.409,7.4,12.325,4.18Z" transform="translate(-305.031 -208.717)" fill="#9499f1"/>
      <path id="Path_1702" data-name="Path 1702" d="M683.356,392s-6.369-7.988-12.578-5.387c0,0,6.628,8.475,12.734,7.409Z" transform="translate(-303.878 -201.466)" fill="#9499f1"/>
      <path id="Path_1703" data-name="Path 1703" d="M680.4,376.766s-7.325-9.745-12.136-6.984c0,0,5.365,7.535,12.592,8.757Z" transform="translate(-302.8 -194.255)" fill="#9499f1"/>
      <path id="Path_1704" data-name="Path 1704" d="M675.776,361s-6.439-7.994-11.638-6.466c0,0,5.416,8.208,12.411,8.879Z" transform="translate(-301.028 -187.838)" fill="#9499f1"/>
      <path id="Path_1705" data-name="Path 1705" d="M672.049,345.6s-7.192-7.724-10.615-6.68c0,0,5,8.382,10.841,8.3Z" transform="translate(-299.867 -181.178)" fill="#9499f1"/>
      <path id="Path_1706" data-name="Path 1706" d="M668.3,330.035s-6.03-9.054-9.679-8.629c0,0,3.489,7.945,9.621,9.5Z" transform="translate(-298.659 -173.698)" fill="#9499f1"/>
      <path id="Path_1707" data-name="Path 1707" d="M664.558,312.135s-5.4-6.994-8.553-7.19c0,0,4.018,9.124,8.649,9.359Z" transform="translate(-297.537 -166.639)" fill="#9499f1"/>
      <path id="Path_1708" data-name="Path 1708" d="M664.758,294.3l-4.717-14.129s-1.118,12.411,5.264,16.728Z" transform="translate(-299.237 -156.005)" fill="#9499f1"/>
      <path id="Path_1709" data-name="Path 1709" d="M664.752,268.734s-.164-11.544.5-12.438c0,0-4.675,9.274-.8,17.513Z" transform="translate(-300.503 -145.759)" fill="#9499f1"/>
      <path id="Path_1710" data-name="Path 1710" d="M685.139,489.162s6.094-3.233,9.285,5.895c0,0-5.438,3.106-10.125-3.675Z" transform="translate(-309.681 -245.465)" fill="#9499f1"/>
      <path id="Path_1711" data-name="Path 1711" d="M690.831,472.262s7.4-2.791,10.255,6.7c0,0-5.8,3.432-11.064-4.407Z" transform="translate(-312.137 -238.286)" fill="#9499f1"/>
      <path id="Path_1712" data-name="Path 1712" d="M694.232,456.438s5.543-5.662,12.883.865c0,0-5.227,4.946-12.986.67Z" transform="translate(-313.9 -230.681)" fill="#9499f1"/>
      <path id="Path_1713" data-name="Path 1713" d="M696.478,439.722s5.628-5.925,12.638.513c0,0-6.246,5.146-12.737.955Z" transform="translate(-314.866 -223.417)" fill="#9499f1"/>
      <path id="Path_1714" data-name="Path 1714" d="M696.335,423.774s4.26-8.8,11.936-4.378c0,0-4.821,7.734-11.714,5.9Z" transform="translate(-314.847 -215.227)" fill="#9499f1"/>
      <path id="Path_1715" data-name="Path 1715" d="M694.431,406.876s4.247-8.96,12.019-4.151c0,0-5.5,8.1-11.749,5.6Z" transform="translate(-314.029 -207.997)" fill="#9499f1"/>
      <path id="Path_1716" data-name="Path 1716" d="M691.454,388.574s2.116-9.994,8.832-10.451c0,0-2.129,10.546-8.066,12.328Z" transform="translate(-312.752 -198.047)" fill="#9499f1"/>
      <path id="Path_1717" data-name="Path 1717" d="M689.23,373.246s1.375-12.113,6.922-12.172c0,0-.806,9.215-6.415,13.931Z" transform="translate(-311.797 -190.729)" fill="#9499f1"/>
      <path id="Path_1718" data-name="Path 1718" d="M683.564,357.148s2.325-10,7.671-10.881c0,0-1.311,9.747-7.32,13.391Z" transform="translate(-309.365 -184.374)" fill="#9499f1"/>
      <path id="Path_1719" data-name="Path 1719" d="M678.927,341.832s.763-10.527,4.084-11.858c0,0,1.355,9.667-3.243,13.266Z" transform="translate(-307.375 -177.381)" fill="#9499f1"/>
      <path id="Path_1720" data-name="Path 1720" d="M675.161,327.187s1.179-10.814,4.614-12.118c0,0,.564,8.659-4.162,12.862Z" transform="translate(-305.759 -170.984)" fill="#9499f1"/>
      <path id="Path_1721" data-name="Path 1721" d="M670.072,310.933s.612-8.814,3.13-10.727c0,0,1.717,9.821-2.007,12.584Z" transform="translate(-303.575 -164.605)" fill="#9499f1"/>
      <path id="Path_1722" data-name="Path 1722" d="M668.688,293.272l3.3-14.526s2.337,12.24-3.587,17.166Z" transform="translate(-302.857 -155.394)" fill="#9499f1"/>
      <path id="Path_1723" data-name="Path 1723" d="M667.878,270.623s6.6-9.469,6.556-10.581c0,0-1.325,10.3-9.15,14.955Z" transform="translate(-301.52 -147.366)" fill="#9499f1"/>
      <path id="Path_1724" data-name="Path 1724" d="M668.62,262.41s6.548-13.641,9.161-14.605a17.808,17.808,0,0,0-9.6,14.173Z" transform="translate(-302.762 -142.115)" fill="#9499f1"/>
      <path id="Path_1725" data-name="Path 1725" d="M668.776,300.166l.391-.092c-3.7-15.747-4.215-25.676-1.462-27.956l-.256-.309C664.531,274.226,664.99,284.032,668.776,300.166Z" transform="translate(-301.635 -152.417)" fill="#9499f1"/>
      <path id="Path_1726" data-name="Path 1726" d="M681.6,357.6l.58-.163c-.406-1.448-.852-2.918-1.325-4.371-4.112-12.641-7.548-24.374-9.654-33.346l-.476-.281c2.109,8.989,5.44,21.157,9.557,33.814C680.752,354.7,681.195,356.161,681.6,357.6Z" transform="translate(-303.855 -172.86)" fill="#9499f1"/>
      <path id="Path_1727" data-name="Path 1727" d="M658.447,469.44c.083-.08,8.332-8.2,14.668-22.586a87.073,87.073,0,0,0,6.977-26.535c1.136-11.448-.41-24.421-3.753-36.333l-.483.494c7.5,26.738,2.323,48.871-3.46,62.017-6.271,14.254-14.425,22.287-14.507,22.367Z" transform="translate(-298.345 -200.563)" fill="#9499f1"/>
      <path id="Path_1728" data-name="Path 1728" d="M996.251,683.714l-15.8-22.9s-.3-5.67-1.329-6.995-.221-4.271-.221-4.271,1.107-1.62.148-1.767-.148-3.755-.148-3.755l-.074-5.743s.886-5.522.148-6.848a2.172,2.172,0,0,1,.074-2.356s.886-3.166,0-3.976-.664-5.743-.443-9.646-1.55-6.111-1.55-6.7-5.831-6.332-5.831-6.848-3.69-2.651-5.9-3.24-3.321-1.031-3.248-1.325-3.469-1.473-3.469-1.473-3.1-.221-4.281-1.767c-1.164-1.524-4.793-1.994-4.895-2.007-.022-.1-.048-.206-.068-.309s-.045-.222-.067-.333c.279-.467.537-.948.771-1.443q.105-.223.2-.449a6.276,6.276,0,0,0,3.632-1.126,4.944,4.944,0,0,0,1.769-3.531,7.749,7.749,0,0,0-.863-3.924c-.648-1.326-1.6-2.7-1.269-4.138.142-.621.514-1.166.7-1.775a4.673,4.673,0,0,0-.53-3.487c-.559-1.07-1.338-2.01-1.959-3.045a11.943,11.943,0,0,1-1.558-4.307,6.685,6.685,0,0,0-.576-2.344,4.348,4.348,0,0,0-1.294-1.307,12.933,12.933,0,0,0-7.933-2.406c-2.009.07-4.012.61-6.007.365a21.988,21.988,0,0,1-3.507-.918c-2.475-.732-5.331-1.034-7.487.384-2.194,1.443-3.014,4.2-4.475,6.383-1.292,1.928-3.183,3.544-4.168,5.586.012-.039.021-.08.033-.119a6.709,6.709,0,0,0-.55,1.488,10.585,10.585,0,0,0,.327,4.883,3.4,3.4,0,0,0,1.192,2.18,6.946,6.946,0,0,0,2.58.506c-.033.14-.069.279-.1.421A16.859,16.859,0,0,0,929.937,599c0,.15.006.3,0,.447a11.573,11.573,0,0,1-.078,1.266h0s-7.421-1.525-9.413-.494-5.9,1.841-6.5,2.43-2.067.147-3.4,3.608-1.476,6.995-3.174,8.615-2.583,2.724-2.657,3.9.221,1.473-.443,1.841-1.624,1.914-1.328,2.5a2.1,2.1,0,0,1-.812,2.209,2.46,2.46,0,0,0-1.033,2.209s-.443,1.62-1.476,1.988-1.7,2.8-1.7,2.8l-3.348,3.848-6.631-7.336a2.8,2.8,0,0,0-3.948-.2l-3.256,2.93a6.428,6.428,0,0,0-3.26,1.94,8.476,8.476,0,0,0-1.689,2.514l-1.784,1.605a4.527,4.527,0,0,0-.457,5l4.25,4.7.026.039a7.487,7.487,0,0,0-4.11,1.674c-6.346,5.6-6.421,10.751-5.46,13.106s9,11.414,9,11.414a35.935,35.935,0,0,0,11.42,9.306l-.009.009-.051.052c-.134.141-.266.3-.4.462-.036.046-.073.091-.108.139s-.069.1-.1.144-.081.116-.121.177-.063.1-.094.145c-.043.068-.085.139-.127.211-.027.047-.055.093-.081.141-.051.092-.1.188-.151.286-.016.032-.033.062-.049.094-.063.129-.124.263-.183.4-.021.048-.04.1-.06.149-.039.1-.077.193-.114.293-.023.062-.045.126-.067.19q-.049.141-.095.289c-.021.068-.043.137-.063.207-.031.105-.059.214-.088.323-.017.067-.035.131-.052.2q-.062.256-.115.528c-.013.068-.025.14-.037.209-.022.125-.044.25-.064.38-.013.087-.025.177-.037.266-.016.121-.031.243-.045.368-.01.092-.02.186-.029.28-.013.137-.023.277-.033.419-.006.086-.013.171-.017.259-.012.231-.022.468-.026.712-.148,8.615.356,9.867.356,9.867a4.781,4.781,0,0,0,3.917,2.94,5.109,5.109,0,0,0,1.262-.068c3.837-.663,12.843-2.209,16.016-1.619,1.909.353,5.44-.17,7.956-.645q.346-.065.663-.128l.459,1.464,1.461-.4c.472.274.892.517,1.238.716l.782.45c1.458,4.939,7.369,3.254,7.369,3.254l1.4.811,14.244.367a28.688,28.688,0,0,0,5.042,2.421,4.5,4.5,0,0,0,.715.157,32.729,32.729,0,0,0,3.97.075c1.092-.029,1.935-.075,1.935-.075s-.145-3.867-.352-8.2a116.377,116.377,0,0,0,13.194-1.08c7.606-1.336,10.78-8.254,11.949-11.95a34.826,34.826,0,0,1,.746,4.587,33.144,33.144,0,0,0,1.181,3.976,13.457,13.457,0,0,0,1.624,2.945c5.609-1.914,2.214-4.786,1.033-6.038s.812-2.283.812-2.283,1.55-1.031,1.4-1.988-.221-1.988,4.8-1.914S996.251,683.714,996.251,683.714ZM918.317,636.7c.064.421.764,4.957,1.4,6.15a8.12,8.12,0,0,1,.166,2.425c-2.973-.237-6.071-.364-6.071-.364a.71.71,0,0,1,.158.378c-.151-.033-.307-.068-.467-.105-.22-.051-.448-.107-.68-.167l5.481-8.331Zm-10.854,17.268,5.148.815.432.068a17.09,17.09,0,0,0-.266,2.431c.015.076.116.17.281.275a6.736,6.736,0,0,0-.1,1.218c.082.407,2.49,1.287,5.249,2.018-.037.149-.075.29-.113.423h0c-2.438-1.283-6.277-1.882-6.72-2.834s-13.507-5.518-13.507-5.518-.478-.253-1.3-.65l3.442.651.945-.1a51.5,51.5,0,0,0,6.51,1.2Z" transform="translate(-388.448 -274.822)" fill="url(#linear-gradient-2)"/>
      <path id="Path_1729" data-name="Path 1729" d="M993.472,763.8s-2.048,12.362-12.436,14.191-45.061,1.463-45.061,1.463-19.824-2.853-26.993-19.6-11.777-23.408-5.633-23.7,39.282,11.192,41.184,11.338S995.3,722.035,993.472,763.8Z" transform="translate(-402.467 -351.709)" fill="#65617d"/>
      <path id="Path_1730" data-name="Path 1730" d="M993.472,763.8s-2.048,12.362-12.436,14.191-45.061,1.463-45.061,1.463-19.824-2.853-26.993-19.6-11.777-23.408-5.633-23.7,39.282,11.192,41.184,11.338S995.3,722.035,993.472,763.8Z" transform="translate(-402.467 -351.709)" opacity="0.05"/>
      <path id="Path_1731" data-name="Path 1731" d="M900.2,794.611a4.742,4.742,0,0,0,3.882,2.921,5.056,5.056,0,0,0,1.251-.068c3.8-.658,12.728-2.195,15.873-1.609,1.892.351,5.392-.169,7.885-.641,1.657-.312,2.868-.6,2.868-.6s-2.925-9.728-3.292-10.022-13.167-7.973-13.167-7.973l-10.136-.729-.031,0A5.338,5.338,0,0,0,901.9,777.9c-1.071,1.295-1.988,3.421-2.05,6.9C899.7,793.367,900.2,794.611,900.2,794.611Z" transform="translate(-402.182 -368.764)" fill="#3f3d56"/>
      <path id="Path_1732" data-name="Path 1732" d="M900.2,794.611a4.742,4.742,0,0,0,3.882,2.921,41.807,41.807,0,0,1-2.754-4.018l.055-7.095a12.5,12.5,0,0,1,3.981-10.531l-.031,0s-5.339.364-5.486,8.923S900.2,794.611,900.2,794.611Z" transform="translate(-402.182 -368.764)" opacity="0.05"/>
      <path id="Path_1733" data-name="Path 1733" d="M973.09,764.83l9.436-7.387,14.85-14.631s-1.6-.077-4.025-.182c-.6.384-2.289,1.591-2.35,3.057-.072,1.789-4.014.125-6.061,1.148s-12.07,13.85-13.825,13.766-3.145-.891-3.878.353c-.015.029-.035.055-.053.081Z" transform="translate(-431.094 -354.491)" opacity="0.1"/>
      <path id="Path_1734" data-name="Path 1734" d="M903.46,777.9q.5.244,1.023.467c7.169,3.072,16.02,9.509,16.678,10.681.4.711,5.532,3.827,9.493,6.162,1.657-.312,2.868-.6,2.868-.6s-2.925-9.728-3.292-10.022-13.167-7.973-13.167-7.973l-10.136-.729-.031,0A5.34,5.34,0,0,0,903.46,777.9Z" transform="translate(-403.744 -368.764)" opacity="0.1"/>
      <path id="Path_1735" data-name="Path 1735" d="M868.266,731.575c.95,2.342,8.923,11.339,8.923,11.339s5.047,6.584,12.217,9.656,16.02,9.509,16.678,10.681c.424.753,6.136,4.194,10.163,6.557.312.182.612.36.9.527.788.459,1.475.858,2,1.159.658.382,1.056.608,1.056.608s2.449-1.966,4.889-3.946c2.407-1.953,4.8-3.917,4.841-4.027.072-.219,1.023-2.708.8-2.853-.114-.077-.617-1.088-1.541-2.263a10.352,10.352,0,0,0-3.726-3.079,10.594,10.594,0,0,1-4.828-5.034s-.32-.233-.805-.54a9.779,9.779,0,0,0-3.29-1.466c-1.611-.2-4.609-3.494-4.609-3.494a9.005,9.005,0,0,1-2.853-3c-.768-1.6-12.114-9.4-13.165-10.117l27.5,17.664L930,754.179l9.436-7.387,14.85-14.631s-2-.1-4.9-.222c-7.218-.312-20.036-.8-21.653-.437a12.342,12.342,0,0,1-4.025.263,14.117,14.117,0,0,1-6.068-1.11c-2.416-1.275-6.221-1.87-6.66-2.816s-13.386-5.482-13.386-5.482-17.629-9.362-23.92-3.8S867.314,729.236,868.266,731.575Z" transform="translate(-388.448 -343.402)" fill="#65617d"/>
      <path id="Path_1736" data-name="Path 1736" d="M968.176,632.312l2.267,7.534,2.925,16.97,10.753.733,3.114-5.164,3.105-5.151s1.936-6.858,3.327-13.492c1.231-5.87,2.034-11.565.7-12.184-1.187-.549-1.968-2.526-2.475-4.65-.064-.263-.123-.531-.176-.8a41.428,41.428,0,0,1-.713-5.453s-22.531-1.17-19.386,8.12a14.784,14.784,0,0,1,.849,4.94,11.514,11.514,0,0,1-.077,1.257,10.532,10.532,0,0,1-4.209,7.336Z" transform="translate(-431.52 -297.829)" fill="#ee8e9e"/>
      <path id="Path_1737" data-name="Path 1737" d="M959.972,641.868l.805,12.8,1.828,10.9,2.05,5.047,1.828,27.616s17.637,2.039,21.927-.037a1.876,1.876,0,0,0,.777-.606c5.181-7.823,3.483-30.484,3.483-30.484l1.975-14.631-1.317-7.593-3.182-.338-2.449-.261s-.553.68-1.352,1.736c-2.168,2.864-6.158,8.495-5.89,10.845.364,3.219-.439,6.511-1.683,7.022s-2.267,1.391-2.486.513a3.961,3.961,0,0,1-.219-2.341c.219-1.244-.953-5.047-.953-5.047s-1.975-4.461-1.828-6.364-.219-4.1-.805-4.608-1.389-1.025-.731-3.364-2.886-6.9-2.886-6.9Z" transform="translate(-427.998 -308.63)" fill="#e3e8f4"/>
      <path id="Path_1738" data-name="Path 1738" d="M1000.766,667.667l.733,21.873s1.661.919,4.224,2.341a1.876,1.876,0,0,0,.777-.606c5.181-7.823,3.483-30.484,3.483-30.484l1.975-14.631-1.317-7.593-3.182-.338c1.231-5.87,2.034-11.565.7-12.184-1.187-.549-1.968-2.526-2.475-4.65h0l-2.28,15.476s.191,1.394.259,2.833a8.108,8.108,0,0,1-.184,2.726,9.08,9.08,0,0,0-.147,3.658c-1.319,2.324-1.977,6.627-2.3,10.784C1000.6,662.4,1000.766,667.667,1000.766,667.667Z" transform="translate(-445.494 -302.458)" opacity="0.1"/>
      <path id="Path_1739" data-name="Path 1739" d="M1006.052,620.784s3.685.458,4.856,1.994,4.243,1.756,4.243,1.756,3.511,1.17,3.438,1.463,1.024.732,3.219,1.317,5.852,2.707,5.852,3.219,5.779,6.218,5.779,6.8,1.756,2.78,1.536,6.657-.439,8.778.439,9.583,0,3.95,0,3.95a2.161,2.161,0,0,0-.073,2.341c.732,1.317-.146,6.8-.146,6.8l.073,5.706s-.8,3.584.146,3.731-.146,1.756-.146,1.756-.8,2.926.219,4.243,1.317,6.949,1.317,6.949l15.654,22.75s.219,4.17-4.755,4.1-4.9.951-4.755,1.9-1.39,1.975-1.39,1.975-1.975,1.024-.8,2.268,4.535,4.1-1.024,6a13.373,13.373,0,0,1-1.609-2.926,33,33,0,0,1-1.17-3.95s-.512-5.56-1.536-6.291-.878-4.243-.878-4.243,1.463-2.853-.585-4.023S1002.2,688.98,1002.2,688.98l-.732-21.872s-.512-16.166,2.56-21.579a9.1,9.1,0,0,1,.146-3.658c.512-1.317-.073-5.56-.073-5.56Z" transform="translate(-445.796 -302.196)" fill="#3f3d56"/>
      <path id="Path_1740" data-name="Path 1740" d="M955.841,635.524s-7.354-1.515-9.329-.491-5.852,1.829-6.437,2.414-2.048.146-3.365,3.584-1.463,6.949-3.146,8.559-2.56,2.707-2.633,3.877.219,1.463-.439,1.829-1.609,1.9-1.317,2.487,15.215,13.46,15.215,13.46.732,4.9,1.39,6.145-.732,18.361-2.195,19.531,9.875,1.062,9.875,1.062.512-11.23.951-11.816-.293-12.582-.293-12.582-.073-10.241.878-12.948.844-11.7.844-11.7.841-5.4,1.863-6.657S955.841,635.524,955.841,635.524Z" transform="translate(-414.757 -308.158)" opacity="0.1"/>
      <path id="Path_1741" data-name="Path 1741" d="M955.456,635.139s-7.354-1.515-9.329-.491-5.852,1.829-6.437,2.414-2.048.146-3.365,3.584-1.463,6.949-3.146,8.559-2.56,2.707-2.633,3.877.219,1.463-.439,1.829-1.609,1.9-1.317,2.487,15.215,13.46,15.215,13.46.732,4.9,1.39,6.145-.732,18.361-2.194,19.531,9.875,1.063,9.875,1.063.512-11.23.951-11.816-.293-12.582-.293-12.582-.073-10.241.878-12.948.844-11.7.844-11.7.841-5.4,1.863-6.657S955.456,635.139,955.456,635.139Z" transform="translate(-414.592 -307.993)" fill="#3f3d56"/>
      <path id="Path_1742" data-name="Path 1742" d="M973.971,618.778a14.786,14.786,0,0,1,.849,4.94,16.776,16.776,0,0,0,19.25-7.606,41.428,41.428,0,0,1-.713-5.453S970.826,609.489,973.971,618.778Z" transform="translate(-433.877 -297.829)" opacity="0.1"/>
      <path id="Path_1743" data-name="Path 1743" d="M954.72,592.073a16.742,16.742,0,1,0,.364-3.483A16.742,16.742,0,0,0,954.72,592.073Z" transform="translate(-425.744 -282.683)" fill="#ee8e9e"/>
      <path id="Path_1744" data-name="Path 1744" d="M924.824,672.592l-4.023,1.244a2.086,2.086,0,0,1-.8,2.195,2.447,2.447,0,0,0-1.024,2.195s-.439,1.609-1.463,1.975-1.682,2.78-1.682,2.78l-3.365,3.877s-1.244,1.024-1.024,1.536-1.317.658-1.317.658l.8,13.021,6.949,1.317,4.316-.439,3.511-1.317,3.072-1.829,1.39-3.584,6.145-9.363Z" transform="translate(-406.603 -324.431)" fill="#3f3d56"/>
      <path id="Path_1745" data-name="Path 1745" d="M898.431,697.218s-8.924-12.875-15.581-5.925,2.707,18.214,4.9,17.849,12.655-.951,12.655-.951Z" transform="translate(-393.889 -331.574)" fill="#ee8e9e"/>
      <rect id="Rectangle_426" data-name="Rectangle 426" width="46.711" height="36.268" rx="1.544" transform="translate(485.077 339.397) rotate(27.036)" fill="#3f3d56"/>
      <rect id="Rectangle_427" data-name="Rectangle 427" width="39.262" height="29.586" transform="translate(486.938 344.019) rotate(27.036)" fill="#9499f1"/>
      <circle id="Ellipse_99" data-name="Ellipse 99" cx="0.644" cy="0.644" r="0.644" transform="translate(478.208 355.855)" fill="#e6e8ec"/>
      <circle id="Ellipse_100" data-name="Ellipse 100" cx="1.062" cy="1.062" r="1.062" transform="translate(515.645 374.833)" fill="#e6e8ec"/>
      <path id="Path_1746" data-name="Path 1746" d="M901.791,704.553c-.073,9.656,19.9,11.7,19.9,11.7l5.1.81,2.285.362.952-9.436s-1.047-.156-2.355-.461c-1.933-.45-4.437-1.229-4.962-2.32C921.833,703.384,901.863,694.9,901.791,704.553Z" transform="translate(-403.027 -336.203)" fill="#ee8e9e"/>
      <path id="Path_1747" data-name="Path 1747" d="M955.358,588.592a1.985,1.985,0,0,1,1.224.549c.566.6.6,1.661,1.332,2.03a1.483,1.483,0,0,0,.873.1c1.944-.274,3.07-2.471,4.938-3.075a4.963,4.963,0,0,1,3.272.281,2.437,2.437,0,0,1,1.084.7c.625.81.186,2,.476,2.978.4,1.358,2.023,1.9,3.428,2.076s2.987.276,3.924,1.336a3.556,3.556,0,0,1,.7,2.831,2.223,2.223,0,0,0-.008,1.047c.386,1.1,2.284.935,2.78.068.362-.63.252-1.152,1.106-1.328a3.636,3.636,0,0,1,1.791.309,13.148,13.148,0,0,0,4.633.711,16.754,16.754,0,1,0-31.551-10.61Z" transform="translate(-426.018 -282.684)" opacity="0.1"/>
      <path id="Path_1748" data-name="Path 1748" d="M973.508,592.3a2.252,2.252,0,0,1,.009-1.048,3.558,3.558,0,0,0-.7-2.83c-.938-1.061-2.52-1.16-3.925-1.338s-3.025-.716-3.427-2.074c-.29-.979.149-2.17-.476-2.978a2.413,2.413,0,0,0-1.083-.7,4.969,4.969,0,0,0-3.273-.283c-1.867.6-2.994,2.8-4.937,3.076a1.488,1.488,0,0,1-.873-.1c-.736-.369-.767-1.43-1.332-2.029-.888-.94-2.573-.333-3.661-1.032a3.375,3.375,0,0,1-1.182-2.166,10.539,10.539,0,0,1-.324-4.851c.637-2.721,3.067-4.587,4.62-6.91,1.448-2.165,2.26-4.907,4.435-6.341,2.136-1.408,4.967-1.108,7.42-.381a21.753,21.753,0,0,0,3.476.912c1.978.243,3.962-.294,5.954-.363a12.8,12.8,0,0,1,7.863,2.39,4.317,4.317,0,0,1,1.283,1.3,6.654,6.654,0,0,1,.571,2.329,11.883,11.883,0,0,0,1.544,4.279c.616,1.029,1.387,1.962,1.942,3.025a4.652,4.652,0,0,1,.525,3.465c-.188.6-.557,1.146-.7,1.763-.326,1.429.615,2.793,1.258,4.111a7.713,7.713,0,0,1,.855,3.9,4.916,4.916,0,0,1-1.753,3.508,6.3,6.3,0,0,1-3.709,1.124,13.154,13.154,0,0,1-4.725-.709,3.658,3.658,0,0,0-1.791-.309c-.854.175-.745.7-1.106,1.328C975.792,593.236,973.9,593.4,973.508,592.3Z" transform="translate(-422.928 -275.983)" fill="#3f3d56"/>
      <path id="Path_1749" data-name="Path 1749" d="M971.812,765.569l9.436-7.387,14.85-14.631s-2-.1-4.9-.222a3.207,3.207,0,0,0-1.036,2c-.072,1.789-4.014.125-6.061,1.148s-12.07,13.85-13.825,13.766-3.145-.891-3.878.353c-.015.029-.035.055-.053.081a2.083,2.083,0,0,1-1.115.662Z" transform="translate(-430.256 -354.792)" opacity="0.1"/>
      <path id="Path_1750" data-name="Path 1750" d="M943.44,761.26l4.742,15.135.744,2.377,2.256-.619,4.979-1.367,22.171-6.09a19.238,19.238,0,0,0,7.979-2.129,24.173,24.173,0,0,1,13.777-3c2.931.274,6.19-.991,8.894-5.987,0,0,6.145-18.14-9.364-23.334S983.371,739,983.371,739s-.079.044-.211.129c-.6.384-2.289,1.591-2.35,3.057-.072,1.789-4.014.125-6.061,1.148s-12.07,13.85-13.825,13.766-3.145-.891-3.878.353c-.015.029-.035.055-.053.081-.542.746-2.17.919-3.248.95-.588.018-1.014-.009-1.014-.009l-.138.042-1.126.336Z" transform="translate(-420.903 -350.994)" fill="#65617d"/>
      <path id="Path_1751" data-name="Path 1751" d="M945.589,722.715l2.285.362.952-9.436s-1.047-.156-2.355-.461C946.818,714.5,946.032,719.586,945.589,722.715Z" transform="translate(-421.825 -341.852)" opacity="0.1"/>
      <path id="Path_1752" data-name="Path 1752" d="M1005.657,652.468s6.8-1.975,5.121,17.337a53.988,53.988,0,0,1-14.264,31.528s-14.484,6.364-20.994,5.34-11.265-1.244-11.265-1.244a16.539,16.539,0,0,0-6.584-1.756c-3.657-.146-11.338-2.414-11.485-3.146s1.9-11.485,1.024-12.289c0,0,10.241.42,11.265,1.161s2.487.21,3.584,0,4.462-3.136,11.119-.576c0,0,2.268.219,3.146-.366a3.14,3.14,0,0,1,2.288-.146,6.439,6.439,0,0,0,1.589-.8c.219-.293,1.975,0,1.975,0a.778.778,0,0,0,1.1-.512,4.785,4.785,0,0,1,1.024-1.609S986.272,674.267,990,670.1a2.383,2.383,0,0,0,.8-2.121C990.515,666.805,996.878,650.127,1005.657,652.468Z" transform="translate(-422.078 -315.698)" opacity="0.1"/>
      <path id="Path_1753" data-name="Path 1753" d="M1005.337,649.868s6.8-1.975,5.12,17.337a53.987,53.987,0,0,1-14.264,31.528s-14.484,6.364-20.994,5.34-11.265-1.244-11.265-1.244a16.537,16.537,0,0,0-6.584-1.756c-3.657-.146-11.338-2.414-11.485-3.146s1.9-11.485,1.024-12.289c0,0,10.241.42,11.265,1.161s2.487.21,3.584,0,4.462-3.136,11.119-.576c0,0,2.268.219,3.146-.366a3.14,3.14,0,0,1,2.288-.146,6.436,6.436,0,0,0,1.589-.8c.219-.293,1.975,0,1.975,0a.778.778,0,0,0,1.1-.512,4.785,4.785,0,0,1,1.024-1.609s1.975-11.119,5.706-15.288a2.383,2.383,0,0,0,.8-2.121C990.195,664.205,996.564,647.527,1005.337,649.868Z" transform="translate(-421.941 -314.582)" fill="#3f3d56"/>
      <path id="Path_1754" data-name="Path 1754" d="M957.5,776.932l9.662,11.69a.294.294,0,0,0,.062-.068c.072-.219,1.023-2.708.8-2.853s-1.9-3.805-5.267-5.341a10,10,0,0,1-4.135-3.764Z" transform="translate(-426.939 -369.07)" opacity="0.1"/>
      <path id="Path_1755" data-name="Path 1755" d="M957.582,802.913c.658.382,1.056.608,1.056.608s2.449-1.966,4.889-3.946c2.407-1.953,4.8-3.917,4.841-4.027.072-.219,1.023-2.708.8-2.853-.114-.077-.617-1.088-1.541-2.263-6.551-1.835-2.379,2.712-1.824,2.921,0,0-7.973-1.83-8.411,6.856a10.2,10.2,0,0,0,.187,2.7Z" transform="translate(-426.884 -374.821)" opacity="0.1"/>
      <path id="Path_1756" data-name="Path 1756" d="M966.158,806.593l1.391.805,14.117.364a28.411,28.411,0,0,0,5,2.405,4.446,4.446,0,0,0,.709.156,32.36,32.36,0,0,0,3.935.075c1.082-.029,1.918-.075,1.918-.075s-.667-17.8-1.172-19.678c-.241-.9-1.424-.7-2.592-.25a17.157,17.157,0,0,0-2.528,1.279s-6,.582-6.95,1.1-3.656-.3-5.339,0-4.681-1.979-4.681-1.979c-8.194-2.706-3.586,2.342-3,2.561,0,0-7.973-1.83-8.412,6.856S966.158,806.593,966.158,806.593Z" transform="translate(-427.381 -374.821)" fill="#3f3d56"/>
      <path id="Path_1757" data-name="Path 1757" d="M1007.635,799.733c.154,3.685,3.026,8.26,4.74,10.681,1.082-.029,1.918-.075,1.918-.075s-.667-17.8-1.172-19.678c-.241-.9-1.424-.7-2.592-.25C1009.114,793.066,1007.515,796.761,1007.635,799.733Z" transform="translate(-448.453 -374.836)" fill="#565387"/>
      <path id="Path_1758" data-name="Path 1758" d="M1007.635,799.733c.154,3.685,3.026,8.26,4.74,10.681,1.082-.029,1.918-.075,1.918-.075s-.667-17.8-1.172-19.678c-.241-.9-1.424-.7-2.592-.25C1009.114,793.066,1007.515,796.761,1007.635,799.733Z" transform="translate(-448.453 -374.836)" opacity="0.1"/>
      <path id="Path_1759" data-name="Path 1759" d="M1003.24,800.222c.972,3.557.961,7.547,2.51,9.961a4.444,4.444,0,0,0,.709.156,32.359,32.359,0,0,0,3.935.075c1.082-.029,1.918-.075,1.918-.075s-.667-17.8-1.172-19.678c-.241-.9-1.424-.7-2.592-.25a17.15,17.15,0,0,0-2.528,1.279S1002,795.666,1003.24,800.222Z" transform="translate(-446.467 -374.836)" opacity="0.05"/>
      <path id="Path_1760" data-name="Path 1760" d="M918.089,744.653s7.012,2.279,12.954,10.364Z" transform="translate(-410.022 -355.36)" opacity="0.1"/>
      <g id="Group_1802" data-name="Group 1802" transform="translate(525.207 296.491)" opacity="0.1">
        <path id="Path_1761" data-name="Path 1761" d="M1017.7,590.877c-.013.052-.026.1-.042.155a5.173,5.173,0,0,1-.244.61,4.459,4.459,0,0,1,.286-.766Z" transform="translate(-977.861 -585.85)"/>
        <path id="Path_1762" data-name="Path 1762" d="M948.286,583.549a6.674,6.674,0,0,1,.545-1.478c-.038.126-.076.251-.106.381a10.539,10.539,0,0,0,.324,4.851,3.376,3.376,0,0,0,1.182,2.166c1.088.7,2.773.091,3.661,1.032.565.6.6,1.66,1.332,2.029a1.487,1.487,0,0,0,.873.1c1.943-.274,3.07-2.472,4.937-3.076a4.969,4.969,0,0,1,3.273.283,2.414,2.414,0,0,1,1.083.7c.625.808.186,2,.476,2.978.4,1.358,2.023,1.9,3.427,2.074s2.988.277,3.925,1.338a3.557,3.557,0,0,1,.7,2.83,2.253,2.253,0,0,0-.009,1.048c.388,1.1,2.284.934,2.781.067.362-.631.252-1.153,1.106-1.328a3.658,3.658,0,0,1,1.791.309,13.155,13.155,0,0,0,4.725.709,6.3,6.3,0,0,0,3.709-1.124,4.372,4.372,0,0,0,1.138-1.383,4.679,4.679,0,0,1-1.577,2.48,6.3,6.3,0,0,1-3.709,1.124,13.156,13.156,0,0,1-4.725-.709,3.658,3.658,0,0,0-1.791-.309c-.854.175-.745.7-1.106,1.328-.5.867-2.394,1.029-2.781-.067a2.253,2.253,0,0,1,.009-1.048,3.558,3.558,0,0,0-.7-2.83c-.938-1.061-2.52-1.16-3.925-1.338s-3.025-.716-3.427-2.074c-.29-.979.149-2.17-.476-2.978a2.414,2.414,0,0,0-1.083-.7,4.969,4.969,0,0,0-3.273-.283c-1.867.6-2.994,2.8-4.937,3.076a1.487,1.487,0,0,1-.873-.1c-.736-.369-.767-1.43-1.332-2.029-.888-.941-2.573-.333-3.661-1.032a3.376,3.376,0,0,1-1.182-2.166A10.539,10.539,0,0,1,948.286,583.549Z" transform="translate(-948.118 -582.071)"/>
      </g>
      <path id="Path_1763" data-name="Path 1763" d="M1015.482,684.595c-1.339,1.81-2.87,3.483-4.056,5.4a10.264,10.264,0,0,0-1.778,6.386c1.227-1.259,1.789-3,2.563-4.577,1.31-2.674,3.269-4.94,4.921-7.4.316-.471,2.336-3.182,1.314-3.312C1017.6,680.983,1015.938,683.978,1015.482,684.595Z" transform="translate(-449.301 -328.077)" opacity="0.1"/>
      <ellipse id="Ellipse_101" data-name="Ellipse 101" cx="69.067" cy="65.072" rx="69.067" ry="65.072" transform="translate(108.738 233.948)" fill="#f1f1f1"/>
      <path id="Path_1764" data-name="Path 1764" d="M390.662,608.311l-57.138-17.035a87.263,87.263,0,0,1-37.97,8.633c-44.694,0-81.054-33.288-81.054-74.2s36.361-74.2,81.054-74.2,81.054,33.288,81.054,74.2c0,20.655-9.483,40.477-26.043,54.5Zm-57.239-18.256.214.064,50.608,15.088L348.69,580.281l.575-.478c16.652-13.828,26.2-33.547,26.2-54.1,0-40.287-35.849-73.063-79.913-73.063s-79.913,32.776-79.913,73.063,35.849,73.063,79.913,73.063a86.09,86.09,0,0,0,37.668-8.615Z" transform="translate(-108.045 -229.54)" fill="#2f2e41"/>
      <circle id="Ellipse_102" data-name="Ellipse 102" cx="6.279" cy="6.279" r="6.279" transform="translate(154.117 294.167)" fill="#9499f1"/>
      <circle id="Ellipse_103" data-name="Ellipse 103" cx="6.279" cy="6.279" r="6.279" transform="translate(172.383 294.167)" fill="#9499f1"/>
      <circle id="Ellipse_104" data-name="Ellipse 104" cx="6.279" cy="6.279" r="6.279" transform="translate(190.649 294.167)" fill="#9499f1"/>
      <path id="Path_1765" data-name="Path 1765" d="M290.72,338.246c3.933,2.635,9.895,1.38,9.895,1.38s9.007-4.266,11.671-4.266,9.134-2.635,9.134-2.635l-.218-1.776-.66-5.352c4.1,3.2,8.655,2.093,10.9,1.859,2.41-.251,15.284-7.9,16.522-8.406a3.276,3.276,0,0,0,1.129-1.139h0a29,29,0,0,0,2.179-3.982h0c.807-.709,1.4-1.28,1.354-1.4a8.867,8.867,0,0,1,.788-2.107,10.322,10.322,0,0,0,3.905-1.406,3.549,3.549,0,0,0,.54-.547,3.472,3.472,0,0,0,.728-2.213s12.559-12.671,10.91-17.94,4.059-5.395,4.059-5.395,8.753-3.764,9.971-6.022c.751-1.39,7.314-4.439,12.257-6.582l.607-.262c1.921,4.2,11.655.969,13.573-.809,2.03-1.882,7.992-2.76,7.992-2.76s.254-24.59,2.157-27.727c.9-1.488,1.121-6.343,1.1-11.033q0-.25,0-.5c2.665-.52,9-1.724,11.948-2.017a11.44,11.44,0,0,0,5.3-2.479c.114.141.176.221.176.221a3.663,3.663,0,0,0,1.623.267,2.511,2.511,0,0,0,1.422-.267c1.142-.627,5.328-1.882,6.85-2.509s-.254-5.144-1.4-6.022-1.9-2.007-1.269-2.509-1.522-1.756-2.791-2.007A41.286,41.286,0,0,1,438,207.893s-1.4-2.886-3.679-2.886-5.328-2.258-5.328-2.258c-.127-1-2.537-1.129-2.537-1.129s-9.134-7.026-10.656-6.148-5.708-1.38-5.708-1.38-5.134.575-6.343-.371v-.006a1.443,1.443,0,0,0-.3-.852c-.274-.848-1.6-2.012-2.887-2.981a11.318,11.318,0,0,0,.147-1.813c0-.263-.01-.527-.028-.785,0-.044-.009-.086-.012-.13l.179-1.767a3.661,3.661,0,0,1,.443-1.662c.214-.33.529-.591.768-.906a2.512,2.512,0,0,0,.156-.235c.013-.022.025-.044.037-.066q.052-.093.1-.189c.01-.022.02-.043.029-.065a2.858,2.858,0,0,0,.164-.535c0-.014.005-.029.008-.043q.024-.124.038-.251l0-.035a5.4,5.4,0,0,0-.286-2.154,14.493,14.493,0,0,1-1.039-3.567,11,11,0,0,0-.064-1.839c-.305-1.37-1.717-2.245-3.073-2.813a17.114,17.114,0,0,1-4.328-2.813c-1.281-.993-3.392-.494-5-.391a43.707,43.707,0,0,0-10.775,2.491,10.712,10.712,0,0,0-3.764,1.869,4.148,4.148,0,0,0-1.378,2.325h0v0a2.916,2.916,0,0,0-.042.634c0,.019,0,.038,0,.057q.008.122.027.243c0,.026.008.053.013.079a2.586,2.586,0,0,0,.07.287l0,.008c.146.462.417.882.574,1.341a2.918,2.918,0,0,1,.086.31c0,.011,0,.022.007.034.021.1.039.2.051.3h0a12.972,12.972,0,0,1-.467,3.495c-.026.164-.044.332-.057.5h0v.006a5.983,5.983,0,0,0,.175,2l.005.022c.022.08.048.159.074.238.011.034.021.069.033.1.024.067.05.133.077.2.018.044.035.088.054.131.026.058.054.116.082.173s.048.1.073.143.058.1.088.153.061.1.092.147.062.092.095.137.073.1.112.145.066.082.1.121.088.095.133.141.069.071.106.105.1.091.158.135c.036.029.07.059.107.087.063.047.13.091.2.134.032.021.062.043.1.063a3.314,3.314,0,0,0,.32.168c.728.332,1.646.451,2.087,1.09a1.427,1.427,0,0,1,.214.5c0,.043,0,.086,0,.13v.11c.005.371.025.738.063,1.1a4.206,4.206,0,0,0,.033.595,1.717,1.717,0,0,0,.124.432,11.381,11.381,0,0,0,3.847,6.462c.037.193.08.42.13.675a12.676,12.676,0,0,1-3.691,1.935c-3.045.891-7.358,5-7.358,5s-2.144,15.432-2.656,17.314-.9,9.159-.9,9.159a21.02,21.02,0,0,1-1.269,4.517c-.538,1.062-.442,5.62,1.062,8.391a7.082,7.082,0,0,1-.936,1.521c-3.045,3.513-12.178,3.387-15.223,3.387-2.8,0-3.67,1.7-3.789,1.968-5.573,1.583-23.627,6.736-25.769,7.672-2.537,1.109-3.933,12.064-3.933,12.064s-5.328,18.192-5.074,20.586-1.776,9.023-1.776,9.023,0,7.505-.863,8.014a.068.068,0,0,1-.025.015c-.888.376-.761,4.015-.761,4.015s.653.189,1.672.447a29.154,29.154,0,0,1-2.055,6.237c-.4-.5-.78-.71-1.013-.125-.634,1.6-10.148,12.887-12.559,12.887a7.308,7.308,0,0,0-4.3,2.211C289.243,335.077,288.662,336.869,290.72,338.246Zm43.638-65.365a105.777,105.777,0,0,0,22.327-.765,25.646,25.646,0,0,1-1.649,4.4c-.761,1.255-2.918,8.406-2.918,9.911s-3.425,14.428-4.44,15.055a3.756,3.756,0,0,0-1.1,1.6A14.982,14.982,0,0,0,345.9,305c.015.328.045.636.087.929-.758.7-1.56,1.422-2.274,2.067h0a49.393,49.393,0,0,0-6.059,3.9c-1.522,1.38-8.626,3.071-8.626,3.071a44.03,44.03,0,0,0-5.1,2.6c-2.2,1.328-4.4,3.013-4.979,4.678.248-2.8.654-6.181.925-8.33.138,0,.273-.009.405-.017,3.554-.221,3.024-3.613,2.836-4.454-.025-.12-.046-.188-.046-.188,2.537-2.76,8.246-23.336,7.485-25.594s.634-4.266.936-4.266.713-2.509.079-3.889,2.79-2.635,2.79-2.635Zm87.2-55.348c-.225.054-.449.108-.673.166-.006-.095-.009-.146-.009-.146s.253,0,.681-.021ZM384.7,198.6c-.1.126-.205.249-.313.366-.043.046-.087.09-.13.135,0-.236,0-.469,0-.7q.219.1.444.195Zm-12.708,24.34.046.706s-.069.43-.2,1.168Zm58.3-7.012-2.213.382c.314-.118.623-.247.921-.39a2.112,2.112,0,0,1,.706-.192,3.846,3.846,0,0,1,.825.177,1.733,1.733,0,0,0-.24.023Z" transform="translate(-140.181 -107.694)" fill="url(#linear-gradient-3)"/>
      <path id="Path_1766" data-name="Path 1766" d="M394.555,408.1s-2.549,5.275-2.425,5.649-5.478,4.856-5.478,4.856l-6.1-4.358.623-2.988s6.848-6.171,7.346-6.883S394.555,408.1,394.555,408.1Z" transform="translate(-179.313 -209.279)" fill="#be6f72"/>
      <path id="Path_1767" data-name="Path 1767" d="M343.5,429.671c4.233,4.109,9.214,2.864,11.579,2.615s15-7.844,16.216-8.342a3.232,3.232,0,0,0,1.108-1.131h0a28.9,28.9,0,0,0,2.139-3.952c-.085.022-4.226,1.205-5.272,0,0,0-1.743-2.137-2.117-2.137s-.03-3.75-.03-3.75a48.412,48.412,0,0,0-5.946,3.875c-1.494,1.37-8.467,3.048-8.467,3.048a43.02,43.02,0,0,0-5.01,2.585C344.405,424.494,341.1,427.335,343.5,429.671Z" transform="translate(-163.059 -213.003)" fill="#3f3d56"/>
      <path id="Path_1768" data-name="Path 1768" d="M343.5,436.82c4.233,4.109,9.214,2.864,11.579,2.615s15-7.844,16.216-8.342a3.232,3.232,0,0,0,1.108-1.131c-1.474-.879-11.1,5.239-13.793,6.36s-9.507.5-13.367-1.121c-1.927-.807.025-3.289,2.46-5.573C344.405,431.643,341.1,434.484,343.5,436.82Z" transform="translate(-163.059 -220.152)" opacity="0.1"/>
      <path id="Path_1769" data-name="Path 1769" d="M335.635,418.185s-1.773,13.322-1.322,15.065-11.128-5.976-11.128-5.976,4.052-8.348,2.864-10.266S335.635,418.185,335.635,418.185Z" transform="translate(-154.692 -214.467)" fill="#be6f72"/>
      <path id="Path_1770" data-name="Path 1770" d="M325.578,372.045s7.221,2.117,11.206,1.868c3.489-.219,2.968-3.586,2.784-4.42-.025-.12-.045-.187-.045-.187,2.49-2.739,8.093-23.158,7.346-25.4s.623-4.233.919-4.233.7-2.49.077-3.86S350.6,333.2,350.6,333.2a102.691,102.691,0,0,0,21.913-.759,25.635,25.635,0,0,1-1.619,4.37,44.6,44.6,0,0,0-2.864,9.836c0,1.494-3.362,14.318-4.358,14.941a3.727,3.727,0,0,0-1.083,1.584,14.968,14.968,0,0,0-.66,1.9c.373,8.342,9.836,5.1,11.206,3.984a3.394,3.394,0,0,0,1.245-2.739s12.326-12.575,10.708-17.8,3.984-5.354,3.984-5.354,8.591-3.735,9.786-5.976c.737-1.38,7.179-4.405,12.03-6.532,3.038-1.332,5.451-2.308,5.451-2.308l-2.019-7.241-1.591-5.707-3-1.126-9.58-3.606-17.2-2.366-1.576.2-16.709,2.161s-24.4,6.972-26.894,8.073-3.86,11.973-3.86,11.973-5.229,18.054-4.98,20.429-1.743,8.955-1.743,8.955,0,7.448-.847,7.954a.065.065,0,0,1-.025.015C325.454,368.435,325.578,372.045,325.578,372.045Z" transform="translate(-155.717 -168.078)" fill="#3f3d56"/>
      <path id="Path_1771" data-name="Path 1771" d="M369.427,344.522a102.693,102.693,0,0,0,21.913-.759c.747-2.353,11.213-8.828,11.213-8.828C393.967,332.818,369.427,344.522,369.427,344.522Z" transform="translate(-174.539 -179.4)" opacity="0.1"/>
      <path id="Path_1772" data-name="Path 1772" d="M389.276,406.332c.374,8.342,9.836,5.1,11.206,3.984a3.5,3.5,0,0,0,.53-.543c-3.307,1.218-9.169,2.159-11.076-5.344A14.968,14.968,0,0,0,389.276,406.332Z" transform="translate(-183.058 -209.337)" fill="#444053"/>
      <path id="Path_1773" data-name="Path 1773" d="M325.578,416.971s7.221,2.117,11.206,1.868c3.489-.219,2.968-3.586,2.784-4.42-3.656-.115-9.951-.458-13.218-1.447a.067.067,0,0,1-.025.015C325.454,413.361,325.578,416.971,325.578,416.971Z" transform="translate(-155.717 -213.003)" fill="#444053"/>
      <path id="Path_1774" data-name="Path 1774" d="M389.276,406.332c.374,8.342,9.836,5.1,11.206,3.984a3.5,3.5,0,0,0,.53-.543c-3.307,1.218-9.169,2.159-11.076-5.344A14.968,14.968,0,0,0,389.276,406.332Z" transform="translate(-183.058 -209.337)" opacity="0.1"/>
      <path id="Path_1775" data-name="Path 1775" d="M325.578,416.971s7.221,2.117,11.206,1.868c3.489-.219,2.968-3.586,2.784-4.42-3.656-.115-9.951-.458-13.218-1.447a.067.067,0,0,1-.025.015C325.454,413.361,325.578,416.971,325.578,416.971Z" transform="translate(-155.717 -213.003)" opacity="0.1"/>
      <path id="Path_1776" data-name="Path 1776" d="M293.4,450.631c3.86,2.615,9.712,1.37,9.712,1.37s8.84-4.233,11.455-4.233,8.965-2.615,8.965-2.615l-.214-1.763-1.031-8.447s-9.7-.249-10.085-1.121c0,0-1.743-4.288-2.366-2.7s-9.961,12.789-12.326,12.789a7.145,7.145,0,0,0-4.216,2.194C291.949,447.486,291.379,449.264,293.4,450.631Z" transform="translate(-141.341 -220.641)" fill="#3f3d56"/>
      <path id="Path_1777" data-name="Path 1777" d="M353.067,336.654s8.093,5.1,5.852,6.225S353.067,336.654,353.067,336.654Z" transform="translate(-167.517 -180.248)" opacity="0.1"/>
      <path id="Path_1778" data-name="Path 1778" d="M347.178,353.886s6.972,6.619,4.358,6.8S347.178,353.886,347.178,353.886Z" transform="translate(-164.99 -187.644)" opacity="0.1"/>
      <path id="Path_1779" data-name="Path 1779" d="M334.09,390.75s3.54,6.654,2.206,7.809S334.09,390.75,334.09,390.75Z" transform="translate(-159.373 -203.466)" opacity="0.1"/>
      <path id="Path_1780" data-name="Path 1780" d="M402.3,399.244c-1.245,1.245,11.828-4.109,8.84-4.358S402.3,399.244,402.3,399.244Z" transform="translate(-188.612 -205.237)" opacity="0.1"/>
      <path id="Path_1781" data-name="Path 1781" d="M448.17,226.223l.416-.062c1.549-.237,7.162-1.118,12.2-2.211,1.228-.266,2.418-.545,3.509-.832,3.857-1.011,6.444-2.1,4.8-3a8.831,8.831,0,0,1-3.942-5.192c-.057-.182-.112-.359-.162-.533a13.685,13.685,0,0,1-.5-2.866s-14.069-4.98-11.33,0a4.72,4.72,0,0,1-.829,5.834,10.926,10.926,0,0,1-3.03,2.259Z" transform="translate(-208.335 -125.596)" fill="#be6f72"/>
      <path id="Path_1782" data-name="Path 1782" d="M451.459,232.172s-5.033,3.611-10.173.623-11.864,26.4-11.864,26.4l-6.972,17.182s-4.517,3.735,1.1,5.354,18.091-1.619,21.256,3.113,9.161,5.478,9.774,5.478,2.985-17.8,2.985-17.8l.616-25.773Z" transform="translate(-196.559 -135.405)" opacity="0.1"/>
      <path id="Path_1783" data-name="Path 1783" d="M423.989,279.981c5.62,1.619,18.091-1.619,21.256,3.113a12.159,12.159,0,0,0,5.356,4.31,14.026,14.026,0,0,0,4.418,1.168c.082,0,.2-.326.336-.892.876-3.6,2.649-16.913,2.649-16.913l.615-25.773L452.7,232.177l-.807-1.751a10.723,10.723,0,0,1-2.565,1.248,9.027,9.027,0,0,1-7.61-.625c-1.509-.877-3.153,1.033-4.724,4.171-3.783,7.555-7.139,22.225-7.139,22.225l-6.972,17.182a6.042,6.042,0,0,0-.473.453C421.421,276.124,419.566,278.708,423.989,279.981Z" transform="translate(-196.747 -134.656)" fill="#f3f5f9"/>
      <path id="Path_1784" data-name="Path 1784" d="M471.625,275.607a32.414,32.414,0,0,0-.167,6.557,76.815,76.815,0,0,0,1.171,9.261,3.548,3.548,0,0,0,.152.565c3.038-1.332,5.451-2.308,5.451-2.308l-2.02-7.241c.877-3.6,2.65-16.913,2.65-16.913l.615-25.773-5.917-12.817c3.857-1.011,6.445-2.1,4.8-3a9.129,9.129,0,0,1-4.1-5.725,20.855,20.855,0,0,1-3.539,3.807l-.077.065-.448,4.345-.137,1.335-.286,2.772s1.37,32.745,2.366,34.613.5,5.478-.374,9.712C471.707,275.1,471.665,275.35,471.625,275.607Z" transform="translate(-217.604 -129.415)" opacity="0.1"/>
      <path id="Path_1785" data-name="Path 1785" d="M472.629,268.469c-.872,4.233-.124,11.206.872,16.559s11.579,1.868,13.571,0,7.844-2.739,7.844-2.739.249-24.4,2.117-27.516c.886-1.477,1.1-6.3,1.078-10.949-.017-4.181-.224-8.227-.3-9.6-.02-.319-.03-.493-.03-.493s8.093-13.7,7.968-14.692-2.49-1.121-2.49-1.121-8.965-6.972-10.459-6.1-5.6-1.37-5.6-1.37-5.207.59-6.283-.413a.547.547,0,0,1-.192-.458c.122-1.594-5.307-5-5.473-5.1,4.574,4.116-2.824,10.459-3.663,11.153l-.077.065-.872,8.452s1.37,32.745,2.366,34.613S473.5,264.235,472.629,268.469Z" transform="translate(-217.978 -123.517)" fill="#67647e"/>
      <circle id="Ellipse_105" data-name="Ellipse 105" cx="0.623" cy="0.623" r="0.623" transform="translate(254.51 108.758)" fill="#444053"/>
      <path id="Path_1786" data-name="Path 1786" d="M472.736,216.5l3.783,3.661,5.546-9.253a.547.547,0,0,1-.192-.458c.122-1.594-5.307-5-5.473-5.1C480.973,209.463,473.575,215.805,472.736,216.5Z" transform="translate(-218.879 -123.892)" opacity="0.1"/>
      <circle id="Ellipse_106" data-name="Ellipse 106" cx="0.623" cy="0.623" r="0.623" transform="translate(255.756 128.679)" opacity="0.1"/>
      <circle id="Ellipse_107" data-name="Ellipse 107" cx="0.623" cy="0.623" r="0.623" transform="translate(255.756 128.43)" fill="#444053"/>
      <path id="Path_1787" data-name="Path 1787" d="M472.3,215.628l3.783,3.661,5.546-9.253a.547.547,0,0,1-.192-.458c.122-1.594-5.307-5-5.473-5.1C480.536,208.591,473.138,214.933,472.3,215.628Z" transform="translate(-218.691 -123.517)" fill="#67647e"/>
      <rect id="Rectangle_428" data-name="Rectangle 428" width="8.665" height="18.309" rx="1.699" transform="matrix(-1, -0.023, 0.023, -1, 258.341, 127.173)" fill="#3f3d56"/>
      <rect id="Rectangle_429" data-name="Rectangle 429" width="8.665" height="18.309" rx="1.699" transform="matrix(-1, -0.023, 0.023, -1, 258.341, 127.173)" opacity="0.1"/>
      <rect id="Rectangle_430" data-name="Rectangle 430" width="8.665" height="18.309" rx="1.699" transform="matrix(-1, -0.023, 0.023, -1, 258.387, 127.578)" fill="#3f3d56"/>
      <circle id="Ellipse_108" data-name="Ellipse 108" cx="1.362" cy="1.362" r="1.362" transform="translate(253.135 113.166)" fill="#67647e"/>
      <path id="Path_1788" data-name="Path 1788" d="M391.676,273.48c3.113,1.37,23.532-2.241,26.52-3.113s7.346-7.595,5.229-12.451.747-9.587.747-9.587,4.482-9.587,5.478-11.455,3.073-7.306,3.362-8.217a.74.74,0,0,0-.177-.57,21.728,21.728,0,0,0-3.932-3.414c-.879.319-.989-2.2-.954-4.049.02-1.036.082-1.863.082-1.863s-.413.421-1.088.994c-.247.207-.528.436-.839.672a12.894,12.894,0,0,1-3.924,2.144c-2.988.884-7.221,4.965-7.221,4.965l1.245,19.122s-2.864,17.981-5.852,21.468-11.953,3.362-14.941,3.362S391.676,273.48,391.676,273.48Z" transform="translate(-184.088 -129.649)" opacity="0.1"/>
      <path id="Path_1789" data-name="Path 1789" d="M391.239,272.171c3.113,1.37,23.532-2.241,26.52-3.113s7.346-7.595,5.229-12.451.747-9.587.747-9.587,4.482-9.587,5.478-11.455,3.073-7.306,3.362-8.217a.74.74,0,0,0-.177-.57,21.724,21.724,0,0,0-3.932-3.414c-.879.319-.989-2.2-.954-4.049.02-1.036.082-1.863.082-1.863s-.413.421-1.088.994c-.247.207-.528.436-.839.672a12.892,12.892,0,0,1-3.924,2.144c-2.988.884-7.221,4.965-7.221,4.965l1.245,19.122s-2.864,17.981-5.852,21.468-11.953,3.362-14.941,3.362S391.239,272.171,391.239,272.171Z" transform="translate(-183.901 -129.088)" fill="#67647e"/>
      <path id="Path_1790" data-name="Path 1790" d="M450.57,218.325s.117.657.314,1.666c.67,3.419,2.269,10.884,3.421,10.6.827-.207,2.224-1.671,3.309-2.936a21.725,21.725,0,0,0-3.932-3.414c-.879.319-.989-2.2-.954-4.049l-1.006-.869Z" transform="translate(-209.365 -129.462)" opacity="0.1"/>
      <path id="Path_1791" data-name="Path 1791" d="M451.006,217.453s.117.657.314,1.666c.67,3.419,2.269,10.884,3.421,10.6.827-.207,2.224-1.671,3.309-2.936a21.726,21.726,0,0,0-3.932-3.414c-.879.319-.989-2.2-.954-4.049l-1.006-.869Z" transform="translate(-209.552 -129.088)" fill="#67647e"/>
      <path id="Path_1792" data-name="Path 1792" d="M432.932,276.027s6.225-1.245,7.968-3.984,13.6-5.1,12.154-2.241S440.9,282.036,440.9,282.036l-4.639,6.644-6.193-1.571-2.608-5.073Z" transform="translate(-199.447 -150.997)" fill="#be6f72"/>
      <path id="Path_1793" data-name="Path 1793" d="M457.578,294.131s-6.029,2.241-6.936,5.229S457.578,294.131,457.578,294.131Z" transform="translate(-209.365 -161.997)" opacity="0.1"/>
      <path id="Path_1794" data-name="Path 1794" d="M464.057,300.227s.549,3.111-7.009,2.863Z" transform="translate(-212.146 -164.614)" opacity="0.1"/>
      <path id="Path_1795" data-name="Path 1795" d="M519.83,230.24l2.739-.249s2.988,2.241,5.229,2.241,3.611,2.864,3.611,2.864a40.263,40.263,0,0,0,4.98,1.992c1.245.249,3.362,1.494,2.739,1.992s.125,1.619,1.245,2.49,2.864,5.354,1.37,5.976-5.6,1.868-6.723,2.49a3.088,3.088,0,0,1-2.49,0s-6.6-8.591-9.959-6.972a21.577,21.577,0,0,1-7.97,1.619l-3.611-7.595Z" transform="translate(-235.298 -134.469)" opacity="0.1"/>
      <path id="Path_1796" data-name="Path 1796" d="M424.872,272.424a3.328,3.328,0,0,0,2.321,1.614,17.594,17.594,0,0,0,7.251-.67s-12.543-3.984-.466-13.673h-3.237l-1.078-.408.493-2.58.71-23.258-2.615-.623s-2.1,15.314-2.607,17.182a83.908,83.908,0,0,0-.879,9.089,21.041,21.041,0,0,1-1.245,4.482C422.957,264.7,423.1,269.767,424.872,272.424Z" transform="translate(-197.63 -135.686)" fill="#67647e"/>
      <path id="Path_1797" data-name="Path 1797" d="M426.981,292.32a3.328,3.328,0,0,0,2.321,1.614,17.594,17.594,0,0,0,7.251-.67s-12.543-3.984-.466-13.673H432.85l-1.078-.408C430,282.323,427.208,287.91,426.981,292.32Z" transform="translate(-199.241 -155.582)" opacity="0.1"/>
      <path id="Path_1798" data-name="Path 1798" d="M426.109,292.32a3.328,3.328,0,0,0,2.321,1.614,17.594,17.594,0,0,0,7.251-.67s-12.543-3.984-.466-13.673h-3.237l-1.078-.408C429.127,282.323,426.336,287.91,426.109,292.32Z" transform="translate(-198.867 -155.582)" fill="none"/>
      <path id="Path_1799" data-name="Path 1799" d="M426.109,292.32a3.328,3.328,0,0,0,2.321,1.614,17.594,17.594,0,0,0,7.251-.67s-12.543-3.984-.466-13.673h-3.237l-1.078-.408C429.127,282.323,426.336,287.91,426.109,292.32Z" transform="translate(-198.867 -155.582)" fill="#67647e"/>
      <path id="Path_1800" data-name="Path 1800" d="M455.442,217.365a11.331,11.331,0,0,0,12.824-2.435c-.057-.182-.112-.359-.162-.533a13.684,13.684,0,0,1-.5-2.866s-14.069-4.98-11.33,0A4.72,4.72,0,0,1,455.442,217.365Z" transform="translate(-211.456 -125.596)" opacity="0.1"/>
      <path id="Path_1801" data-name="Path 1801" d="M443.808,195.951v.11c0,.369.025.732.062,1.091s.09.685.154,1.018a11.334,11.334,0,0,0,21.831,1.464c.075-.219.144-.441.2-.665a11.279,11.279,0,0,0,.408-3.018c0-.261-.01-.523-.027-.779a11.33,11.33,0,0,0-22.633.779Z" transform="translate(-206.463 -114.996)" fill="#be6f72"/>
      <path id="Path_1802" data-name="Path 1802" d="M443.808,196.061a4.908,4.908,0,0,1,.062,1.091,4.215,4.215,0,0,0,.032.59,1.717,1.717,0,0,0,.122.428,2.118,2.118,0,0,0,2.938,1.078,3.191,3.191,0,0,0,.884-1.158c1.046-1.945,2.5-4.183,4.794-4.221a10.905,10.905,0,0,1,2.839.635,3.042,3.042,0,0,0,2.769-.374c.54-.493.8-1.337,1.524-1.512s1.394.493,1.728,1.145.6,1.419,1.273,1.756c.3.149.65.192.944.351,1.355.742.732,3.342,2.139,3.763a1.059,1.059,0,0,0,.134.032c.022-.232.047-.466.07-.7l.381-3.8a11.33,11.33,0,0,0-22.633.779Z" transform="translate(-206.463 -114.996)" opacity="0.1"/>
      <path id="Path_1803" data-name="Path 1803" d="M460.4,172.287c1.331.564,2.717,1.432,3.017,2.792a11.035,11.035,0,0,1,.063,1.825,14.5,14.5,0,0,0,1.02,3.54,3.934,3.934,0,0,1-.241,3.546c-.234.313-.543.571-.753.9a3.665,3.665,0,0,0-.435,1.649l-.615,6.129c-1.58-.294-.877-3.032-2.274-3.8-.293-.16-.643-.2-.943-.353-.674-.336-.938-1.1-1.272-1.756s-.991-1.32-1.729-1.144-.982,1.019-1.522,1.512a3.04,3.04,0,0,1-2.771.372,10.972,10.972,0,0,0-2.837-.635c-2.292.039-3.749,2.276-4.795,4.221a3.167,3.167,0,0,1-.884,1.16,2.129,2.129,0,0,1-3.06-1.508c-.107-.731.121-1.547-.3-2.165-.433-.635-1.333-.752-2.048-1.082-1.819-.839-2.384-3.11-2.081-5.016.218-1.373.764-2.787.317-4.109-.154-.456-.421-.872-.564-1.331a3.6,3.6,0,0,1,1.28-3.606,10.468,10.468,0,0,1,3.695-1.855,42.5,42.5,0,0,1,10.576-2.472c1.582-.1,3.655-.6,4.912.388A16.775,16.775,0,0,0,460.4,172.287Z" transform="translate(-202.928 -108.246)" fill="#3f3d56"/>
      <circle id="Ellipse_109" data-name="Ellipse 109" cx="0.623" cy="0.623" r="0.623" transform="translate(253.888 98.922)" opacity="0.1"/>
      <circle id="Ellipse_110" data-name="Ellipse 110" cx="0.623" cy="0.623" r="0.623" transform="translate(253.888 98.673)" fill="#444053"/>
      <circle id="Ellipse_111" data-name="Ellipse 111" cx="0.623" cy="0.623" r="0.623" transform="translate(257.872 138.017)" opacity="0.1"/>
      <circle id="Ellipse_112" data-name="Ellipse 112" cx="0.623" cy="0.623" r="0.623" transform="translate(257.872 137.768)" fill="#444053"/>
      <circle id="Ellipse_113" data-name="Ellipse 113" cx="0.623" cy="0.623" r="0.623" transform="translate(255.756 148.351)" opacity="0.1"/>
      <circle id="Ellipse_114" data-name="Ellipse 114" cx="0.623" cy="0.623" r="0.623" transform="translate(255.756 148.102)" fill="#444053"/>
      <path id="Path_1804" data-name="Path 1804" d="M439.205,254.27s-1.37,9.3,0,10.919S439.205,254.27,439.205,254.27Z" transform="translate(-204.226 -144.889)" opacity="0.1"/>
      <path id="Path_1805" data-name="Path 1805" d="M508.284,284.522s2.615,5.633,0,11.034-4.233,7.594-3.362,11.042S508.284,284.522,508.284,284.522Z" transform="translate(-232.591 -157.873)" opacity="0.1"/>
      <path id="Path_1806" data-name="Path 1806" d="M293.4,460.122c3.86,2.615,9.712,1.37,9.712,1.37s8.84-4.233,11.455-4.233,8.965-2.615,8.965-2.615l-.214-1.763c-2.58.5-8.447,1.681-9.124,2.261-.872.747-11.579,4.358-11.579,4.358s-7.291-.911-9.321-3.907C291.949,456.977,291.379,458.755,293.4,460.122Z" transform="translate(-141.341 -230.132)" opacity="0.1"/>
      <g id="Group_1803" data-name="Group 1803" transform="translate(232.644 67.257)" opacity="0.1">
        <path id="Path_1807" data-name="Path 1807" d="M484.459,180.878c-.007-.135-.007-.27,0-.406.011.155.013.31.011.466C484.464,180.918,484.461,180.9,484.459,180.878Z" transform="translate(-456.552 -180.472)"/>
        <path id="Path_1808" data-name="Path 1808" d="M438.237,196.111c.715.329,1.615.447,2.048,1.082.422.618.194,1.435.3,2.165a2.129,2.129,0,0,0,3.06,1.508,3.167,3.167,0,0,0,.884-1.16c1.046-1.945,2.5-4.182,4.795-4.221a10.971,10.971,0,0,1,2.837.635,3.04,3.04,0,0,0,2.771-.372c.54-.492.8-1.338,1.522-1.512s1.395.492,1.729,1.144.6,1.419,1.272,1.756c.3.149.649.192.943.353,1.4.763.694,3.5,2.274,3.8l.615-6.129a3.665,3.665,0,0,1,.435-1.649c.21-.328.519-.586.753-.9a2.742,2.742,0,0,0,.511-1.318,3.185,3.185,0,0,1-.511,2.314c-.234.313-.543.571-.753.9a3.665,3.665,0,0,0-.435,1.65l-.615,6.129c-1.58-.294-.877-3.032-2.274-3.8-.293-.16-.643-.2-.943-.353-.674-.336-.938-1.1-1.272-1.756s-.991-1.32-1.729-1.144-.982,1.019-1.522,1.512a3.04,3.04,0,0,1-2.771.372,10.972,10.972,0,0,0-2.837-.635c-2.292.039-3.749,2.276-4.795,4.221a3.167,3.167,0,0,1-.884,1.16,2.129,2.129,0,0,1-3.06-1.508c-.107-.731.121-1.547-.3-2.165-.433-.635-1.333-.752-2.048-1.082-1.664-.767-2.276-2.732-2.137-4.52A4.062,4.062,0,0,0,438.237,196.111Z" transform="translate(-435.791 -185.115)"/>
        <path id="Path_1809" data-name="Path 1809" d="M435.691,181.192c.143.459.41.875.564,1.331a3.828,3.828,0,0,1,.141,1.637,3.18,3.18,0,0,0-.141-.641c-.154-.456-.421-.872-.564-1.331a2.755,2.755,0,0,1-.073-1.3,2.589,2.589,0,0,0,.073.3Z" transform="translate(-435.573 -180.651)"/>
      </g>
      <path id="Path_1810" data-name="Path 1810" d="M488.285,269.044c2.864-.628,9.587-2.61,9.587-2.61l1.2-.242c-.017-4.181-.224-8.227-.3-9.6l-.03,0s-5.727,1.868-7.1,2.864-5.6.747-5.6.747a19.19,19.19,0,0,0-12.077,6.474C468.488,272.784,485.421,269.671,488.285,269.044Z" transform="translate(-218.942 -145.886)" opacity="0.1"/>
      <path id="Path_1811" data-name="Path 1811" d="M516.27,256.332a1.661,1.661,0,0,1,.374,2.791c-1.517,1.256-3.732,2.759-5.845,2.971-3.527.355-12.015,2.057-12.859,2.227-.046.009-.089.02-.133.033-.7.206-6.824,2-9.521,2.59-2.864.628-19.8,3.74-14.318-2.361a19.365,19.365,0,0,1,11.955-6.465,1.555,1.555,0,0,1,.219,0c.64.03,4.259.155,5.505-.752a11.75,11.75,0,0,1,2.06-1.026,39.562,39.562,0,0,1,8.417-2.427l5.857-1.021a1.685,1.685,0,0,1,.986.126Z" transform="translate(-218.942 -144.286)" fill="#be6f72"/>
      <path id="Path_1812" data-name="Path 1812" d="M520.7,230.24l2.739-.249s2.988,2.241,5.229,2.241,3.611,2.864,3.611,2.864a40.259,40.259,0,0,0,4.98,1.992c1.245.249,3.362,1.494,2.739,1.992s.125,1.619,1.245,2.49,2.864,5.354,1.37,5.976-5.6,1.868-6.723,2.49a3.088,3.088,0,0,1-2.49,0s-6.6-8.591-9.959-6.972a21.579,21.579,0,0,1-7.97,1.619l-3.611-7.595Z" transform="translate(-235.672 -134.469)" fill="#67647e"/>
    </g>
  </g>
</svg>
